<svg data-name="Слой 1" xmlns="http://www.w3.org/2000/svg" viewBox="0 0 566.93 566.93"><path d="M316.52 65.22h75.34c12 0 21.45 8.76 21.9 20.71.31 8.16.34 16.35 0 24.51-.47 12.12-9.87 21-22 21.09-12.66.09-25.31 0-38 0-5.12 0-5.12 0-5.12 5.28 0 4.38-.07 8.77 0 13.15 0 2.21-.62 3.3-3 3.29q-30.19-.08-60.39 0c-2.38 0-3.12-1-3.08-3.22.09-5.09-.07-10.17.06-15.25.06-2.47-.86-3.3-3.31-3.28-12.25.08-24.51 0-36.77 0-13.18 0-22.59-9.43-22.6-22.63 0-7.38.14-14.75 0-22.12-.27-11 9.83-21.88 21.62-21.7 25.12.45 50.24.17 75.35.17zm249.26 190.69c-2.27-8-10.92-18.22-22.7-17.33-6.44.49-13 .06-19.43.1a22.15 22.15 0 0 0-22.33 22.45v39.47c0 2.4-.75 3.44-3.26 3.35-4-.14-8 0-12 0-4.65 0-4.66 0-4.66-4.55v-102c0-15-9.06-24-24.08-24q-118.71 0-237.42-.06a20.13 20.13 0 0 0-10.89 3.4c-6.06 3.68-10.73 8.9-15.69 13.74-15.49 15.1-30.75 30.43-46 45.75a7.77 7.77 0 0 1-6.06 2.47c-10.27-.12-20.55.26-30.8-.14-9.16-.37-15.21 5-21.4 10.34-2.12 1.82-2.8 4.53-2.92 7.31-.08 2-.16 4-.17 6 0 12.76-.06 25.51 0 38.27 0 2.57-.79 3.59-3.44 3.48-4.08-.17-8.17 0-12.26 0s-4 0-4-4c0-12.26.06-24.52 0-36.78s-10.26-22.91-22.44-22.32A150.12 150.12 0 0 1 20 240.5a16.12 16.12 0 0 0-9.49 2.09c-5.13 2.72-8.11 7.2-10.51 12.22v168.67c.31.51.67 1 .93 1.53 4.28 8.82 11.18 13.46 21.12 13.37 6.77-.05 13.55 0 20.33 0 14.54 0 23.93-9.39 23.95-23.93 0-12.56.06-25.12 0-37.68 0-2.67.76-3.8 3.56-3.67 3.88.18 7.77 0 11.66 0 4.5 0 4.51 0 4.51 4.43 0 13.05-.22 26.12.15 39.17.37 12.87 9.84 21.63 22.67 21.64h30.8a6.52 6.52 0 0 1 4.85 1.76c13.45 12.44 27 24.79 40.46 37.19 6.66 6.14 13.26 12.36 19.91 18.51a22.07 22.07 0 0 0 16 6q73.41-.29 146.82 0a24.71 24.71 0 0 0 18.56-7.8q42.74-42.92 85.61-85.67a45.08 45.08 0 0 0 3.45-3.73c2.46-3.11 4.06-6.48 3.9-10.67-.22-5.88 0-11.76-.08-17.64 0-2.28.75-3.26 3.12-3.19 4.19.12 8.38 0 12.56 0 4.51 0 4.52 0 4.52 4.41v37.38c.05 10.17 8.42 19.86 18.2 21.08 8.63 1.07 17.31.53 26 .48a25.51 25.51 0 0 0 6.48-1c10.39-2.78 16.86-11.9 16.86-23.66V264.07a29.81 29.81 0 0 0-1.12-8.16zM348.06 246l-46.93 79.19c-.65 1.09-1.87 2.2-1.23 3.5.77 1.54 2.5.87 3.81.87 13.35 0 26.71 0 40.06.06 1 0 2.45-.6 3 .6.42 1-.75 1.74-1.34 2.5Q316.69 369.8 288 406.88q-14.1 18.19-28.16 36.4a8.7 8.7 0 0 1-3.28 3.25c3-8.11 5.7-15.57 8.42-23q12.29-33.69 24.54-67.39c1.43-3.94.76-4.88-3.35-4.88H249.4c-3.64 0-3.83-.27-2.2-3.44q25.25-49.18 50.53-98.36c3.43-6.67 3.52-6.62 11-6.62h37.37c3.76-.04 3.82 0 1.96 3.16z" fill="#a7a7a7"/></svg>