<svg id="Слой_1" data-name="Слой 1" xmlns="http://www.w3.org/2000/svg" viewBox="0 0 566.93 566.93"><defs><style>.cls-1{fill:#a7a7a7}</style></defs><path class="cls-1" d="M294.27 0c10.24 1.72 20.61 2.89 30.73 5.28 30.26 7.14 56.62 21.62 79.39 42.87a173.71 173.71 0 0 1 48 76c12.93 41.2 10.35 82.05-6.58 121.59-10.79 25.19-23.33 49.63-34.86 74.51-8.5 18.32-17.25 36.6-20.08 56.92-.75 5.37-1.1 10.79-1.58 16.19a34.37 34.37 0 0 1-32 31.35c-6.16.37-12.36.2-18.55.21-41.35 0-82.7-.09-124.06.06-14.42.02-25.68-5.37-32.74-17.98a33.22 33.22 0 0 1-4.21-14c-1-20.89-7.23-40.28-16-59-11.92-25.37-24.45-50.46-36-76-13.86-30.79-21.89-62.92-18.59-97.08a177.33 177.33 0 0 1 76.7-130.09 170.46 170.46 0 0 1 69.5-28c6.39-1 12.8-1.9 19.2-2.85zm59.92 390c.4-5.2.53-10 1.16-14.75 3.31-25.33 13.2-48.44 24-71.25 11.65-24.49 23.78-48.78 34.41-73.7 11.2-26.24 14.43-53.78 8.37-82a140.35 140.35 0 0 0-46.61-78.68 138.32 138.32 0 0 0-60.3-30.49c-35.06-8.06-68.47-3.24-99.9 13.72-22.12 11.94-39.72 29-52.9 50.69a141.35 141.35 0 0 0-20.32 63.56c-2 24.86 3.8 48.4 13.72 70.81 11.34 25.63 24 50.69 35.77 76.11 8.79 18.9 16.56 38.2 19.37 59.09.74 5.49 1.2 11 1.81 16.72 1.58.08 2.92.19 4.25.2 14.64 0 29.28-.12 43.92.09 3.9.06 5.16-.91 5.13-5-.17-32.6-.09-65.2-.08-97.8 0-1.66 0-3.33.06-5 .5-9.38 7.33-16 16.7-16.24 10.83-.25 18 6.8 18 18.1.07 32.75 0 65.5 0 98.25 0 8.63-1 7.55 7.35 7.58 13.58.05 27.16 0 40.75 0zM208.2 513.8c-18.16-7.66-17.15-28.8-.93-35-3.18-3-7.43-5.6-9.75-9.39-7.1-11.61 1.07-25.95 14.68-26.37 6.33-.2 12.67-.07 19-.07h121.31c6.46 0 12 1.89 15.78 7.18 7.44 10.33 3.14 22.9-10.32 28.15 8.12 3.51 13.76 8.6 13.85 17.41s-4.71 14.57-13.51 17.92c1.35.81 2.24 1.42 3.18 1.9 7.82 3.93 11.73 11.66 10 19.79s-8.4 13.57-17.3 13.67c-10.56.11-21.13-.08-31.68.14a8.14 8.14 0 0 0-5.24 2.35c-19 20.63-48.37 20.72-67.5.24a9.46 9.46 0 0 0-6.07-2.58c-9.95-.26-19.91-.08-29.87-.13-9.75 0-16.49-5-18.45-13.4s2.07-16 10.51-20.29c.74-.47 1.41-.96 2.31-1.52z"/><path class="cls-1" d="M283.27 194.73c-11.46 0-22.92.06-34.39 0-11-.07-18.31-7.13-18.36-17.45s7.5-17.75 18.62-17.79q34.38-.09 68.78 0c10.79 0 18.36 7.41 18.37 17.59 0 10.39-7.29 17.47-18.18 17.67h-34.84zm.02 18.07c11.46 0 22.92-.05 34.38 0 11.11.06 18.49 6.92 18.62 17.15.13 10.53-7.32 18-18.39 18q-34.83.12-69.66 0a17.4 17.4 0 0 1-17-12.4c-2.26-7.52.3-15.63 7.07-19.78a21.58 21.58 0 0 1 10.18-2.86c11.57-.32 23.19-.11 34.8-.11z"/></svg>