<svg data-name="Слой 1" xmlns="http://www.w3.org/2000/svg" viewBox="0 0 566.93 566.93"><path d="M477.34 566.93H105.55c-1-.11-2.08-.3-3.13-.32-15.12-.23-30.25-.58-45.37-.57a8.81 8.81 0 0 1-8.76-8.72c0-6.35-.5-12.71-.54-19.06-.15-26.89-.2-53.77-.31-80.66 0-1.91-.19-3.82-.29-5.73v-53.78c.1-1.91.27-3.82.29-5.73.29-32.66.65-65.32.78-98 0-8.1 4.51-10.6 10.28-10.77 10.78-.32 21.57-.38 32.35-.55h3.14c0-8.65-.08-16.84 0-25 .13-10.89.2-21.78.63-32.65.35-9.07 3.41-12.16 12.47-13 3.67-.34 7.41-.06 11.24-.06v-3.93c0-22 0-43.94.06-65.91 0-2.47-.73-3.57-3-4.71-8.86-4.51-16.08-11-19-20.69-3.9-12.79-1.91-24.66 7.41-34.94 10-11 22.34-13.59 36.07-10.29 10.22 2.46 17.19 9.5 21.87 18.77a4.42 4.42 0 0 0 4.61 2.85c10.5-.16 21-.14 31.51 0a4.33 4.33 0 0 0 4.59-2.8q21.36-42.73 42.92-85.36c.79-1.58 1.7-3.11 2.92-5.31l79.44 158.05c1-1.76 1.7-2.9 2.3-4.09 9.75-19.22 19.54-38.43 29.16-57.71 1.13-2.27 2.38-2.92 4.81-2.89 11.08.13 22.17-.19 33.24.18 4.75.15 7.28-1.13 9.79-5.49 10.74-18.71 31.38-21.81 47.28-13.22 12.25 6.62 18.8 18 18.17 32.24-.64 14.47-8.43 24.62-21.19 31-1.82.92-2.46 1.85-2.45 3.86.07 22.36 0 44.71.05 67.07 0 .93.09 1.86.15 3 2.22 0 4.22-.05 6.23 0s4 .19 6.05.4c7 .74 9.88 3.47 11 10.38a32.28 32.28 0 0 1 .45 4.59q.3 26 .52 52v3.59h3.76c10.6.18 21.2.12 31.78.62 7.24.34 10.23 2.87 10.08 10.4 0 1.44.07 2.89.08 4.33.3 38.83.84 77.67.82 116.5 0 46.82-.52 93.65-.84 140.48-.05 7.56-2.42 10.08-9.87 10.47-6 .31-11.94.38-17.91.58-4.64.23-9.19.41-13.85.58zM248.26 53.21c-1 1.71-1.61 2.76-2.17 3.85q-14.7 28.78-29.33 57.62a4 4 0 0 1-4.14 2.64c-15.6.07-31.21.3-46.81.41-1.69 0-2.83.25-3.62 2a36.81 36.81 0 0 1-18.05 18.35 4 4 0 0 0-2.54 4.21c.09 22.16.05 44.32.06 66.48 0 1 .09 2 .16 3.34 3.37 0 6.46-.2 9.51 0 11.62.92 13.11 4.59 13.19 13.75q.27 26.75.49 53.47v3.43h237.22c0-13.81-.08-27.39 0-41 .05-6.64.15-13.31.83-19.91.7-6.91 3.13-8.93 10-9.49 4-.32 8-.41 12.14-.6a6.71 6.71 0 0 0 .21-1.18q0-34.83-.05-69.66a3.44 3.44 0 0 0-1.72-2.5 37.56 37.56 0 0 1-18.49-18.33c-.94-2-2.16-2.5-4.24-2.47-7.51.13-15 .16-22.54 0-2.45 0-3.68.66-4.81 2.92q-21.4 42.85-43.06 85.6c-.76 1.51-1.63 3-2.76 5l-39.64-78.82zm164.91 430.38C407 419.74 349.9 358.43 268.2 367c-33.9 3.55-61.45 19.6-83.53 45.16-17.59 20.37-27.5 44.18-30.61 71.25h117.39v-3.27c0-11.56 0-23.12.14-34.68a69.1 69.1 0 0 1 1.14-11.76c1.23-6.44 8.37-10 14.57-7.86 5.89 2 7.76 6.6 7.88 12.15.3 14.06.42 28.12.61 42.18v3.42z" fill="#a7a7a7"/></svg>