<svg data-name="Слой 1" xmlns="http://www.w3.org/2000/svg" viewBox="0 0 566.93 566.93"><path d="M287.91 0c8.48 3.72 13.66 9.77 13.44 19.77 7.74-3.24 14.77-2.8 20.84 2.85a17.44 17.44 0 0 1-1.74 27c-5.17 3.85-10.82 7.06-16 10.94a8.69 8.69 0 0 0-3.15 5.58c-.4 6-.14 12-.14 19.25l24.74-21.15c2.38-2 4.73-4.11 7.15-6.11 8.47-7.05 19-6.62 25.69 1s5.79 18.54-2.79 26c-17 14.73-34.22 29.26-51.18 44-2 1.74-3 4.61-4.45 7l1.39 1.46c7-1.35 13.95-2.67 20.91-4.06 11.22-2.25 20.63 3.53 22.59 13.92 1.87 9.91-4.8 18.65-15.88 20.85q-12.47 2.49-24.93 5c-.9.18-1.78.47-3.23.85 0 8.69-.11 17.5.14 26.3 0 1.2 1.62 2.72 2.86 3.45 12.58 7.34 25.2 14.61 37.92 21.68a6.64 6.64 0 0 0 5.42.29c7.31-3.88 14.4-8.15 22-12.51-3.37-10.14-6.77-20-9.91-30-2.16-6.83-.11-12.84 4.93-17.64a16.67 16.67 0 0 1 17.47-3.88 16.9 16.9 0 0 1 11.34 11.24 161.77 161.77 0 0 0 8.92 22.2c1.42-2.25 3.65-4.33 4.13-6.77q6.44-32.53 12.29-65.19c1.49-8.28 5.07-14.74 13.68-16.94 12.45-3.18 23.55 6.63 21.71 19.68-1.87 13.31-4.72 26.48-7.14 39.72-.13.69-.15 1.39-.34 3.14 6.51-3.77 12.38-7.06 18.11-10.59.84-.52 1.35-2.1 1.46-3.24.48-5.32.86-10.67 1.1-16 .55-12.13 6.63-19.6 16.76-20.39 9.38-.74 16.44 5.52 19.13 17 12.78-4.48 21.08-2.52 26 6.15s2.54 16.75-6.87 24.76c2.37 4.42 5.55 8.44 6.72 13 1.68 6.51-.84 12.45-6.22 16.68s-11.7 5.33-18.18 2.37c-5.86-2.68-11.52-5.83-17.45-8.33a8.7 8.7 0 0 0-6.41.07c-5.4 2.65-10.5 5.9-16.73 9.49 13.94 4.91 26.71 9.44 39.5 13.92 7 2.46 11.65 7 12.65 14.6 1.83 13.76-10.44 23.53-24 18.9-21.61-7.39-43.1-15.15-64.71-22.53-2.38-.81-5.27-.11-7.92-.11-.19.59-.39 1.17-.59 1.76q7.38 8.4 14.74 16.81c4.29 4.92 6 10.56 4.16 16.94A16.79 16.79 0 0 1 425 272.51c-6.92 1.67-12.81-.36-17.5-5.57-6.67-7.38-13.17-14.91-20.15-22.85-7.58 4.36-15.09 8.54-22.42 13-1 .64-1.63 2.76-1.64 4.21-.12 14.76-.14 29.53 0 44.29a6 6 0 0 0 2.15 4.44c7 4.36 14.27 8.38 21.86 12.75 6.34-7.18 12.54-14.19 18.73-21.22 7.9-9 18.24-10.35 26.31-3.5s8.23 17.73.24 26.94c-4.46 5.14-9 10.23-13.28 17.13 2.74.05 5.74.86 8.17 0 21.62-7.36 43.11-15.14 64.71-22.55 13.73-4.7 26.16 5.51 23.9 19.47-1.18 7.27-5.78 11.68-12.58 14.06q-17 5.94-33.87 11.95c-1.49.53-2.95 1.15-5.37 2.1 6.44 3.73 12.07 7.16 17.89 10.22 1.14.6 3.19.15 4.53-.45 4.87-2.21 9.6-4.7 14.4-7.05 10.44-5.14 19.58-3.56 25.11 4.32s3.93 17-5 25.39c5.5 3.95 10.45 8.64 10.06 15.88a23.75 23.75 0 0 1-3.52 11.31c-5 7.61-13.81 8.87-23.59 4.6-2.52 4.18-4.35 8.89-7.59 12.21-4.89 5-11.4 5.9-18 3.24-6.75-2.72-10.42-8-11.17-15.22a107 107 0 0 1-.94-15.46c.23-5.33-1.68-8.48-6.52-10.64-4.33-1.93-8.32-4.63-13.61-7.63l4.81 26.12c1 5.44 2.25 10.84 2.95 16.31 1.33 10.44-4.62 18.86-14.11 20.42-10.14 1.66-18.5-4-20.6-14.57-4.46-22.6-8.52-45.28-13-67.88-.48-2.42-2.59-4.51-3.94-6.76l-1.61.54c-2.56 7.45-5 15-7.73 22.34a17.47 17.47 0 0 1-17.73 11.49c-8.13-.71-14.86-6.33-16.06-14.38a25.83 25.83 0 0 1 1.2-10.78c2.7-9 5.9-17.82 9.07-27.2-7.6-4.39-15-8.79-22.6-12.9-1.11-.6-3.24-.25-4.47.43q-19.29 10.8-38.4 22a6 6 0 0 0-2.77 4.05c-.26 8.46-.13 16.94-.13 25.79 9.61 1.94 18.95 3.84 28.3 5.71 11 2.2 17.68 11.05 15.73 20.95-2 10.36-11.35 16-22.69 13.73-6.84-1.35-13.7-2.65-20.55-4l-1.49 1.1c1.31 2.37 2.08 5.34 4 7 16.95 14.81 34.08 29.42 51.21 44 5.81 4.95 8.79 11 7 18.59-3.09 13.12-18.26 18.06-28.84 9.31s-21.05-17.94-32.61-27.84c0 7.88-.12 14.73.13 21.58 0 1.07 1.58 2.3 2.7 3.07 4.69 3.27 9.49 6.38 14.22 9.58 8.88 6 11.76 14.8 7.7 23.34s-12.72 11.81-22.92 8.63a11.55 11.55 0 0 0-1.49-.29c-1.63 12.58-7.91 19.39-17.9 19.51-10.17.12-16.51-6.6-18.39-19.69-7.22 3-14.1 2.72-20.16-2.59a17.47 17.47 0 0 1 1.34-27.41 126.28 126.28 0 0 1 14.29-9.47c4.15-2.29 5.45-5.23 5.09-9.79-.41-5.06-.1-10.17-.1-16.48l-23.9 20.39c-2.67 2.28-5.29 4.6-8 6.84-8.49 7.07-19 6.64-25.7-1s-5.8-18.53 2.77-25.94c17-14.73 34.22-29.26 51.19-44 2-1.74 3-4.61 4.48-7l-1.38-1.48c-7 1.34-14 2.65-20.91 4-11.28 2.24-20.68-3.49-22.63-13.85-1.87-9.95 4.75-18.68 15.81-20.89 9.22-1.84 18.43-3.7 28.25-5.68 0-8.82.08-17.62-.11-26.41a4.84 4.84 0 0 0-2.32-3.23Q244 352 224.4 341.1a6 6 0 0 0-4.93-.13c-7.29 3.92-14.41 8.16-22 12.56 3.34 10.08 6.71 20 9.87 29.91 2.17 6.84.17 12.84-4.85 17.67s-11 6-17.45 4c-5.84-1.82-9.64-5.87-11.58-11.71-2.37-7.12-4.87-14.21-7.31-21.31l-1.63-.51c-1.35 2.25-3.44 4.36-3.92 6.78q-6.41 32.55-12.27 65.2c-1.5 8.27-5.07 14.74-13.66 17-12.45 3.22-23.61-6.6-21.76-19.63 1.89-13.31 4.73-26.49 7.14-39.72.13-.69.17-1.4.37-3.18-6.53 3.77-12.39 7.07-18.11 10.59-.85.52-1.37 2.09-1.47 3.22q-.73 8-1.12 16c-.56 12.16-6.6 19.57-16.76 20.4-9.35.77-16.44-5.51-19.13-16.95-12.79 4.49-21.11 2.52-26-6.16s-2.53-16.8 6.88-24.73c-2.37-4.42-5.55-8.44-6.72-13-1.67-6.51.82-12.46 6.2-16.7s11.71-5.33 18.18-2.39c5.87 2.67 11.52 5.84 17.45 8.35a8.68 8.68 0 0 0 6.4 0c5.41-2.65 10.52-5.9 16.76-9.5-13.93-4.91-26.68-9.44-39.47-13.91-6.58-2.29-11.14-6.52-12.53-13.48-2.8-14.07 9.85-24.83 23.77-20.07 21.61 7.39 43.09 15.16 64.72 22.52 2.45.84 5.46 0 8.21 0l.21-1.77c-4.73-5.4-9.52-10.74-14.18-16.19-7.35-8.59-6.94-19.43.88-26.1s18.38-5.55 26 3c6.23 7 12.43 14.1 19.13 21.71 7.65-4.41 15.3-8.71 22.78-13.28.9-.55 1.28-2.53 1.29-3.86.08-14.76.13-29.53-.06-44.29a6.57 6.57 0 0 0-2.52-4.78c-6.86-4.29-14-8.2-21.47-12.52-6.76 7.66-13.38 15.28-20.15 22.78-4.69 5.2-10.55 7.28-17.48 5.63a16.74 16.74 0 0 1-12.92-12.34c-1.85-6.36-.21-12 4.09-17a153.18 153.18 0 0 0 14.43-18.39c-2.71-.08-5.69-.94-8.09-.12-21.63 7.35-43.11 15.13-64.72 22.51-14 4.77-26.61-5.86-23.89-19.93 1.35-7 5.87-11.24 12.46-13.54 11.3-3.95 22.58-8 33.87-11.95 1.51-.53 3-1.15 5.5-2.12-6.64-3.81-12.45-7.28-18.42-10.43-1-.52-2.83.06-4 .63-5 2.33-9.93 4.87-14.89 7.29-10.08 4.92-19.17 3.25-24.64-4.5-5.6-7.95-3.94-17.16 4.91-25.38-5.57-4.12-10.6-8.94-10.06-16.43a23.32 23.32 0 0 1 3.51-10.76c5-7.61 13.76-8.91 23.7-4.6 2.33-4.05 4-8.62 7.05-11.87 5-5.27 11.58-6.37 18.37-3.65 7 2.79 10.63 8.32 11.27 15.74.53 6.06.57 12.18 1.34 18.21a8.66 8.66 0 0 0 3.33 5.47c5 3.31 10.31 6.08 16.51 9.64-2.66-14.06-5.13-26.87-7.49-39.7-2.58-14 6-24.64 18.7-23.43 8 .77 13.95 6 15.66 14.76 4.43 22.61 8.53 45.28 13 67.87.48 2.43 2.56 4.54 3.9 6.8l1.63-.51c2.57-7.44 5-15 7.75-22.32a17.52 17.52 0 0 1 17.58-11.5c8.13.71 14.82 6.29 16.07 14.37a25.85 25.85 0 0 1-1.15 10.79c-2.52 8.47-5.56 16.79-8.37 25.17-.18.52-.25 1.07-.5 2.18 7.33 4.23 14.74 8.67 22.33 12.74 1.22.65 3.57.16 4.95-.61q19.06-10.65 37.91-21.71c1.32-.77 2.79-2.62 2.84-4 .26-8.47.13-16.95.13-25.86l-28.24-5.7c-11.08-2.22-17.71-11-15.82-20.89 2-10.35 11.36-16.07 22.65-13.82q9.48 1.88 19 3.69a32.34 32.34 0 0 0 3.49 0c-1.68-3.12-2.42-6.12-4.32-7.78-16.95-14.81-34.07-29.41-51.22-44-5.81-4.94-8.82-10.94-7.08-18.56 3-13.11 18.21-18.12 28.81-9.42 9.84 8.08 19.39 16.51 29.07 24.77.92.78 1.91 1.49 3.66 2.85 0-7.55.14-14.12-.13-20.68-.05-1.27-1.48-2.8-2.68-3.66-4.65-3.31-9.48-6.38-14.22-9.59-8.91-6-11.84-14.77-7.84-23.3s12.66-11.84 22.92-8.77c.5.15 1 .24 1.81.42-.24-9.83 5-15.85 13.44-19.58zm39.86 283.44c0-6.83-.19-13.66.08-20.47.14-3.38-.89-5.3-3.89-7q-18.37-10.15-36.48-20.81c-2.94-1.73-5.14-1.68-8.05 0q-18.1 10.64-36.47 20.83c-2.69 1.5-3.91 3.14-3.86 6.41.2 14 .17 28 0 42 0 2.91.74 4.61 3.41 6.1 12.56 7 24.92 14.32 37.53 21.19a8.4 8.4 0 0 0 6.89 0c12.61-6.88 25-14.24 37.53-21.2 2.72-1.5 3.42-3.26 3.35-6.13-.16-6.91-.04-13.92-.04-20.92z" fill="#a7a7a7"/></svg>