<svg id="Слой_1" data-name="Слой 1" xmlns="http://www.w3.org/2000/svg" viewBox="0 0 566.93 566.93"><defs><style>.cls-1{fill:#a7a7a7}</style></defs><path class="cls-1" d="M199 51.29a21.11 21.11 0 1 1-21.08-21.08A21.22 21.22 0 0 1 199 51.29zm211.05-.03a21.1 21.1 0 1 1-21.1-21 21.22 21.22 0 0 1 21.1 21zM135.68 72.52a21.1 21.1 0 1 1-21-21.21 21.23 21.23 0 0 1 21 21.21zM241.2 51.31a21.11 21.11 0 1 1-21.09 21.06 21.22 21.22 0 0 1 21.09-21.06zm84.52 0a21.11 21.11 0 1 1-21.19 21 21.23 21.23 0 0 1 21.19-21zM473.37 72.5a21.11 21.11 0 1 1-21-21.19 21.23 21.23 0 0 1 21 21.19zm-358.79 63.31a21.11 21.11 0 1 1-21-21.18 21.24 21.24 0 0 1 21 21.18zm379.89-.15a21.1 21.1 0 1 1-21.12-21 21.23 21.23 0 0 1 21.12 21zM325.06 437.91c14.74 4.16 27.65 11.82 40.14 20.51l201.73-212.21c-3.6-3.23-7.1-6.27-10.48-9.42a335 335 0 0 0-74.39-52A427.22 427.22 0 0 0 394 151a437.44 437.44 0 0 0-80-13.6c-3.12-.23-6.24-.49-9.33-.73-.37-14.25-10.72-21.43-19.88-22a20.39 20.39 0 0 0-14.34 4.49c-5.59 4.43-8.13 10.38-8.18 17.5-1.29.11-2.41.23-3.52.32-7.29.6-14.59 1-21.85 1.82a454.83 454.83 0 0 0-52.46 9.12 436.13 436.13 0 0 0-87.11 30.2c-29.69 14-57.23 31.41-81.77 53.37-5.15 4.59-10.3 9.15-15.56 13.82l200 213.14c11.84-7.74 23.47-15.65 37.49-19 .07.13.23.36.34.6 3.78 9.07 7.53 18.14 11.34 27.19a3 3 0 0 1-.37 3.26 41.21 41.21 0 0 0-6.94 31.45c3.91 22.4 25.05 37.17 46.92 34.47 24.28-3 41.75-27.51 35.71-51.24-4.51-17.68-16-28.37-33.85-32.1a3 3 0 0 1-2.57-2c-1.34-3.46-2.83-6.87-4.24-10.31-1.24-3-2.45-6-3.85-9.46 15.74-.31 30.48 2.48 45.08 6.6zm-59.4-47.74c-2 .28-3-.23-3.74-2.12q-31.34-75.27-62.76-150.52c-.59-1.41-1.16-2.82-1.82-4.42l-38.89 16.32q31.61 75.87 63.19 151.69c-4.07 1.66-8 3.31-12 4.8-.44.17-1.37-.39-1.81-.86q-16.8-17.82-33.52-35.68-37-39.37-73.94-78.76c-12.7-13.54-25.39-27.09-38.3-40.87 4.69-3.23 9.23-6.5 13.91-9.55 40.44-26.29 84.62-43.47 131.58-53.78a335.24 335.24 0 0 1 132.13-3.57A411 411 0 0 1 420.56 205c29.33 11.32 57.07 25.65 82.47 44.31.44.33.86.69 1.48 1.18-1.42 1.55-2.76 3.05-4.15 4.51l-71.55 75.21Q393.4 367.46 358 404.72a2.49 2.49 0 0 1-3.39.71 187.52 187.52 0 0 0-48-14.52 139.62 139.62 0 0 0-40.95-.74z"/><path class="cls-1" d="M304.53 220.19a21.11 21.11 0 1 1-21-21.14 21.24 21.24 0 0 1 21 21.14zm0 84.36a21.11 21.11 0 1 1-21.09-21.08 21.23 21.23 0 0 1 21.09 21.08z"/></svg>