<svg data-name="Слой 1" xmlns="http://www.w3.org/2000/svg" viewBox="0 0 566.93 566.93"><path d="M436.56 0h.28c.34.38.65.79 1 1.14q17.34 16 34.7 32 17.7 16.36 35.33 32.77a52.82 52.82 0 0 1 15.93 27.68 113.87 113.87 0 0 1 2.6 24.89v287a153.11 153.11 0 0 1-1.73 23.72c-1.53 9.85-4.14 19.38-8.86 28.22-6.85 12.83-16.95 21.83-31 26-9.68 2.9-19.57 3.16-29.48 1.82-13.13-1.77-24.23-7.54-32.85-17.75-7-8.26-11.08-17.92-13.73-28.29-3-11.66-3.81-23.55-3.81-35.53V245.05a75.88 75.88 0 0 0-.46-9.05c-1.14-9.35-4.9-17.4-12.21-23.55-6-5.05-13.06-7.85-20.71-9.23-2.3-.41-4.63-.6-7.13-.91v364.62h-324V82.1a53.35 53.35 0 0 1 .62-8.75C43 62 48.46 52.93 58.27 46.7c7.07-4.49 14.9-6.19 23.2-6.19h244c10.28.38 19.3 3.91 26.72 11.07 8.48 8.19 12.34 18.36 12.34 30.05v80.27c.57 0 1 .07 1.4.07a83.57 83.57 0 0 1 24 3.88c21.73 7 38.09 20.41 48 41.2 5.56 11.67 7.63 24.11 7.62 37q-.06 79.89 0 159.76a100.57 100.57 0 0 0 1.89 21.83 36.15 36.15 0 0 0 5.9 14c5.79 7.91 19.48 8.06 25.35-.53a35.62 35.62 0 0 0 5-11.48c1.92-7.57 2.34-15.29 2.34-23.05v-240a3 3 0 0 0-1-2.34c-9.34-9.3-18.62-18.67-28-27.94a36.39 36.39 0 0 1-9.22-15.06c-3-9.33-2.31-18.21 3.83-26.18 2.3-3 5-5.69 7.47-8.52l5.57-6.28-53.37-49.15 2-2.35zM323.9 242.92V121.64H81.07v121.28z" fill="#a7a7a7"/></svg>