<svg data-name="Слой 1" xmlns="http://www.w3.org/2000/svg" viewBox="0 0 566.93 566.93"><path d="M566.93 119.56c-3.08 3.61-5.95 7.44-9.29 10.8q-31.59 31.81-63.36 63.46c-34 33.91-85.5 35.46-121.4 3.71-7.1-6.29-12.23-7.15-21.12-2.3 3.06 2.36 5.9 4.14 8.23 6.43 8 7.88 8 13.84.21 21.71-2.59 2.62-5.26 5.15-7.71 7.54 2.91 5.75 6.38 10.86 8.18 16.5 5.9 18.56 1.58 35.17-12 48.84Q275.48 369.86 201.86 443c-17.05 16.94-41.47 19-61.25 5.85-2.66-1.77-4.35-1.95-6.5.56a70.53 70.53 0 0 1-7.45 7.42c-5.8 5-11.66 5-17.34-.19-3.25-3-6.15-6.32-9.51-9.81-1.72 1.55-3.08 2.67-4.33 3.92Q75.7 470.53 55.94 490.3c-7.66 7.63-13.67 7.61-21.34 0q-14.51-14.46-28.94-29c-7.59-7.66-7.55-13.63.13-21.35q19.53-19.62 39.12-39.17c1.28-1.28 2.5-2.63 4.39-4.63-3-2.76-5.88-5.27-8.57-8-7.09-7.19-7.07-13.26.13-20.53 2.72-2.74 5.76-5.17 8.74-7.82-2.2-3.58-4.09-6.28-5.6-9.17-9.92-19-7.11-40.18 8.58-56Q126.06 220.54 200.09 147c16.31-16.26 43.49-19 65.38-2.28 2.33-2.88 4.6-6.23 7.39-9.05 7.56-7.63 13.62-7.55 21.31.13 2.47 2.47 4.63 5.25 7.09 8.09 3.87-2.9 6.88-5.28 10-7.47 32.47-22.67 77.54-19.91 107 6.52 9.88 8.85 17.76 8.59 27.26-.92q32.29-32.3 64.56-64.61c8.67-8.66 14.26-8.66 22.92 0 8.22 8.22 16.5 16.38 24.6 24.71 3.31 3.4 6.21 7.19 9.29 10.8zM159.18 284.38c4.45-3 8.3-4.79 11.15-7.6C193.4 254 216.28 231 239.22 208c7.51-7.52 8.48-14.14 2.94-19.67s-12.21-4.45-19.68 3l-68 68c-1.68 1.68-4 3.39-4.51 5.44-.86 3.69-1.81 8.27-.35 11.35 1.49 3.31 5.8 5.23 9.56 8.26z" fill="#a7a7a7"/></svg>