<svg id="Слой_1" data-name="Слой 1" xmlns="http://www.w3.org/2000/svg" viewBox="0 0 566.93 566.93"><defs><style>.cls-1{fill:#a7a7a7}</style></defs><path class="cls-1" d="M-.06 298.15v-28.94c.21-1.22.47-2.44.6-3.66.86-8.78 4.51-14.46 15.34-17.59 3.24-.93 4.39-2.37 4.91-5.3 1.22-6.73 2.36-13.49 4-20.12 1-3.86.35-6.36-3-8.73-7.13-5-9-12.11-7-20.45 2.91-11.87 8-22.87 13.2-33.85a16.6 16.6 0 0 1 12.09-9.43c3.45-.75 7.1-.53 10.61-1.06a5.94 5.94 0 0 0 3.66-2c5-7.12 9.59-14.46 14.6-21.55 1.77-2.5 2-4.34.49-7.15-4.63-8.51-3.7-17.8 2.89-24.87 7.48-8 15.47-15.59 23.36-23.24 3.1-3 7.07-4.11 11.38-4.28 4.92-.19 9.29 1.41 13.44 3.77a3.13 3.13 0 0 0 3.87-.13c7.9-5.35 15.93-10.5 23.82-15.86a4.9 4.9 0 0 0 1.8-3.19c.36-3 .1-6 .51-8.94.92-6.58 3.84-12 10.26-14.69 11.12-4.57 22.37-8.86 33.56-13.28a12.72 12.72 0 0 1 9 .12 23.22 23.22 0 0 1 11.17 7.92c2 2.57 4 3.13 7.1 2.34a140.58 140.58 0 0 1 19-3.7c5.14-.55 7.55-2.59 9.09-7.62 2.1-6.79 6.78-12.11 14.47-12.35 13-.4 26-.46 39 0 7.78.28 12 5.87 14.57 12.67.49 1.26.54 2.77 1.28 3.81a6.4 6.4 0 0 0 3.3 2.65c6.88 1.43 13.91 2.22 20.7 4 4.73 1.2 8.37 1.08 10.9-3.54a2.75 2.75 0 0 1 .61-.62c6.17-5.1 12.71-8.23 20.94-4.82 10.22 4.23 20.55 8.21 30.83 12.33a14.64 14.64 0 0 1 9.08 10.2 79.4 79.4 0 0 1 1.72 12.81c.15 1.66.42 2.79 2 3.78 7.78 5 15.52 10.08 23.13 15.35 2.15 1.48 3.64 1.46 5.84.12 8.71-5.31 16.29-4.89 23.79 2 8.08 7.44 15.56 15.52 23.43 23.19 5 4.9 6 10.86 4.74 17.32a40 40 0 0 1-3 8.4 3.53 3.53 0 0 0 .3 3.92c4.36 6.47 8.87 12.87 12.86 19.57 2.45 4.13 5.2 6.62 10.27 5.64a11.32 11.32 0 0 1 3.73.29c6.62 1.08 12.28 3.81 15.07 10.28 4.08 9.46 8.06 19 11.69 28.6 4.15 11 2.74 20.66-7.78 27.72a3.74 3.74 0 0 0-1.2 3.09c1.48 8.25 3.19 16.45 4.75 24.69.45 2.37 1.64 3.37 4.09 4 11 2.95 15.48 8.84 15.82 17.72.44 11.46.55 23 .14 34.4-.35 9.71-6.56 16.37-16.14 18.52a4.69 4.69 0 0 0-4.08 4.16c-1.27 7-2.45 14.06-4.15 21-1 3.9-.09 6.37 3.06 8.84 7.31 5.72 9.36 13.72 6.51 22.07-3.85 11.27-8.82 22.16-13.5 33.13a14.42 14.42 0 0 1-10.2 8.39 46.78 46.78 0 0 1-11.36.8c-1.93 0-3.13.19-4.25 1.92-4.52 7-9 13.95-13.91 20.63-2.35 3.21-2.41 5.62-.72 9.26 3.87 8.34 3.9 16.78-2.86 23.92-7.22 7.63-14.68 15-22.22 22.34a21.27 21.27 0 0 1-6.58 4.08c-6.62 2.75-13.06 1.92-19.05-1.91-2.14-1.36-3.74-1.32-5.88.21-6 4.3-12.12 8.62-18.53 12.33-4.64 2.68-7.44 5.69-6.08 11.31a6.18 6.18 0 0 1 0 2c-.76 7.47-3.53 13.66-11 16.65-10.89 4.38-21.83 8.63-32.75 13a12.92 12.92 0 0 1-9.3-.12 25.14 25.14 0 0 1-12.56-9.42 3.49 3.49 0 0 0-4.15-1.51c-6.88 1.47-13.75 3.08-20.71 4-4.92.68-7.42 2.64-8.81 7.67-1.91 6.86-6.52 11.88-14.18 12.69a194.53 194.53 0 0 1-39.57 0c-5.72-.56-9.53-4-12.35-8.56a25.9 25.9 0 0 1-2.76-6.63 6 6 0 0 0-5.42-4.78c-6.08-1.05-12.21-1.93-18.15-3.53-5.05-1.36-8.36-.68-12 3.68-4.46 5.33-10.92 9-18.25 6.5-11.62-4-23-8.8-34.39-13.47a15.22 15.22 0 0 1-9.3-11.79 55.17 55.17 0 0 1-.57-10.92 4 4 0 0 0-2-4c-7.68-5-15.34-10-22.84-15.27-2.17-1.52-3.66-1.45-5.88-.19-9.59 5.5-18.22 4.83-26.28-2.7-7.73-7.23-14.93-15-22.29-22.66-3.89-4-5.06-9.17-4.3-14.48a50.41 50.41 0 0 1 3.32-10.95c.67-1.71.83-2.85-.27-4.44-4-5.8-8.36-11.43-11.54-17.66-3-5.86-7-7.75-13.24-7.21-8.12.7-14-3.41-17.34-10.56-4.17-9-7.82-18.22-11.56-27.41a42.15 42.15 0 0 1-1.84-7c-2-9.05 1.58-15.84 8.88-20.9 2.1-1.45 2.42-3 1.91-5.32-1.61-7.34-3.13-14.71-4.4-22.11-.53-3.09-1.75-4.66-5-5.31A19.73 19.73 0 0 1 .47 300.93c-.1-.93-.35-1.85-.53-2.78zm478.22-14c2.92-101.39-83.94-199-200.32-195.72-99.2 2.82-189 84.77-188.82 194.77.18 109.48 89.5 194.88 195.4 194.27 113.75-.67 195.23-95.03 193.74-193.33z"/><path class="cls-1" d="M460.17 282.94c1.47 72.14-43.19 130.63-93.4 156.92-26.15 13.7-53.88 21-83.28 20.8-74.54-.58-139.42-45.07-166-116.55-6.73-18.12-11-36.72-10.09-56.24.52-11.26-.31-22.72 1.48-33.76 5.75-35.56 21.2-66.51 46.08-92.8 20.57-21.73 44.73-37.74 73.18-47 23.16-7.53 46.81-9.9 71.28-8.17C361 110.51 426.94 153 451.35 225.43c6.46 19.15 10.17 38.77 8.82 57.51zM128 248.63l3.24 1q32.29 9.45 64.59 18.92a29.81 29.81 0 0 1 13.81 8.08c3.55 3.82 4 8 .64 12a21.83 21.83 0 0 1-7.21 5.56 116.68 116.68 0 0 1-15.38 5.79q-28.08 8.48-56.25 16.59c-2.47.71-3.16 1.74-2.58 4.29 3.89 16.91 11.38 32.28 20 47.18.13.24.41.38.8.72 7-3.87 14.07-7.81 21.17-11.65 13.73-7.43 27.46-14.86 41.26-22.15A30 30 0 0 1 227.6 331c5.67.26 8.24 2.34 8 7.93-.21 4.14-.87 8.6-2.68 12.25-7.43 14.91-15.38 29.56-23.14 44.3q-5 9.46-10 18.91c-1.15 2.19-.72 3.83 1.59 5 6.32 3.07 12.46 6.6 19 9.19 8.38 3.35 17 6.12 25.62 8.81 3.21 1 4.31 0 5.23-3.24 3.69-13 7.26-26 11.11-38.89 2.85-9.59 5.78-19.19 9.28-28.56a33.76 33.76 0 0 1 6.95-10.76c3.4-3.65 6.56-3.6 10.1-.12a27.07 27.07 0 0 1 6.43 9.05c3.5 9.16 6.52 18.52 9.37 27.91 4.19 13.82 8 27.75 12.14 41.6 1.18 4 1.8 4.31 5.59 3.23a208.55 208.55 0 0 0 44-18.15c2.09-1.16 2.62-2.64 1.57-4.76-.59-1.21-1-2.5-1.67-3.68-4.36-8.05-8.86-16-13.11-24.13-6.31-12-12.63-24-18.58-36.25a30.85 30.85 0 0 1-2.67-10.84c-.47-5.81 3.26-9.5 9-8.91a37.48 37.48 0 0 1 12 2.93c9.16 4.26 18.1 9 27 13.8C391 353.62 402.1 360 413.4 366c4.78 2.56 5.2 2.38 7.81-2.42a198.16 198.16 0 0 0 17-41.64c1.22-4.38 1.06-4.48-3.32-5.78-17.08-5.05-34.23-9.89-51.25-15.16a142.47 142.47 0 0 1-21.8-8.35c-9-4.52-9.33-12.37-1.31-18.47A28.22 28.22 0 0 1 366 271a64.91 64.91 0 0 1 7.86-2.89q30.17-9 60.35-18c5.35-1.6 5.54-1.77 3.92-7.22a206.18 206.18 0 0 0-16.32-39.45c-1.14-2.1-2.66-4-4.08-6.09-2.15 1.19-4.07 2.27-6 3.33-18.73 10.11-37.43 20.32-56.19 30.4-4.87 2.61-10 4.42-15.76 4.12-5-.27-7.82-2.83-8.12-7.86a13.87 13.87 0 0 1 .44-5.15 95.1 95.1 0 0 1 5.21-13.42c7.13-13.67 14.6-27.16 21.9-40.74 2.51-4.66 5.1-9.3 7.28-14.11s1.38-6.59-3.11-8.92a219.3 219.3 0 0 0-40.69-16.35c-5.19-1.48-5.24-1.34-6.74 3.84q-9.19 31.94-18.48 63.83a30.46 30.46 0 0 1-7.88 13c-4.15 4.18-7 4.21-11.47.25-4-3.6-6.33-8.2-7.85-13.27q-8.68-28.9-17.35-57.83c-1.1-3.66-2.33-7.28-3.49-10.86-.67.06-1 0-1.24.11a181.44 181.44 0 0 0-47 19c-2.08 1.2-2.32 2.63-1.37 4.52 2.38 4.74 4.75 9.48 7.23 14.16 8.5 16 17.09 31.94 25.55 48a26.55 26.55 0 0 1 3 14.26c-.29 4.62-2.95 7.67-7.52 7.4-4.24-.25-8.81-.79-12.55-2.61-12.65-6.12-25-12.82-37.45-19.4-7.75-4.1-15.3-8.59-23.14-12.5-5.23-2.61-7.44-1.75-9.88 3.62-4.69 10.34-9.21 20.76-13.46 31.29-1.6 4.09-2.38 8.6-3.6 13.17z"/><path class="cls-1" d="M283.78 317.91c-18.62.91-35.76-15.93-35.07-35.76.63-18.42 16-34.48 34-34.4 20.63.09 36 15.68 36.18 36 .19 17.49-17.32 35.53-35.11 34.16z"/></svg>