<svg data-name="Слой 1" xmlns="http://www.w3.org/2000/svg" viewBox="0 0 566.93 566.93"><path d="M563.21 323.22a17.85 17.85 0 0 0-3.77-5.72 26.33 26.33 0 0 0-19.59-8.44c-5.43 0-10.85.55-16.28.4-7-.2-12.69-2.89-16.32-9a92.52 92.52 0 0 1-9.17-21.44 15.69 15.69 0 0 1 3.18-15.13c2.16-2.6 4.68-4.83 7-7.24 3.13-3.22 6.64-6.07 9.33-9.69 5.65-7.64 7.69-15.87 3.88-25a43.38 43.38 0 0 0-7.85-11.72c-3.36-3.82-7.18-7.16-10.7-10.82a161.8 161.8 0 0 0-11.72-11.56c-10.47-8.88-23.57-9.22-34.44-.86-3.48 2.68-6.34 6-9.41 9.11a81.08 81.08 0 0 1-8.14 7.35 14.83 14.83 0 0 1-14.68 2.5c-2.57-.87-5.12-1.81-7.6-2.91-5.17-2.3-10.52-4.24-15.28-7.4a13.71 13.71 0 0 1-6.24-10 80 80 0 0 1-.4-10.61 132.31 132.31 0 0 0-.63-14.49c-1.26-11-7.49-18.74-17.5-21.56-4.58-1.29-9.36-1.21-14.07-1.28-9.79-.15-19.59-.31-29.39.23-10.54.59-18.89 6.74-22.39 16.71a41.27 41.27 0 0 0-2 12.36c-.2 5.54.48 11.08 0 16.63-.45 5.15-2.44 9.28-6.82 12.19a54.94 54.94 0 0 1-9.12 4.69c-4.73 2-9.28 4.42-14.29 5.72a16.05 16.05 0 0 1-13.95-2.62 52.72 52.72 0 0 1-7.44-6.8 123 123 0 0 0-9.11-9.16c-9.4-7.93-21.71-8.79-32-2.12a44 44 0 0 0-7.54 6.14c-3.06 3.11-6.1 6.25-9.2 9.33-4.61 4.56-9.56 8.8-13.26 14.22-6.36 9.3-7.09 18.92-1.53 28.83a35.5 35.5 0 0 0 6.05 7.6c3.35 3.34 6.93 6.41 10.21 9.82 5.88 6.13 7.62 13 4.06 20.93-.87 1.93-1.57 3.95-2.46 5.88-2.14 4.66-3.72 9.58-6.64 13.87a14.86 14.86 0 0 1-11 6.64c-4.48.55-9 .22-13.44.3a91.7 91.7 0 0 0-10.61.38c-13.24 1.79-22.18 10.65-22.93 23.27a282.85 282.85 0 0 0 .26 39.81 22.19 22.19 0 0 0 10.78 17.79c5.44 3.41 11.56 4.33 17.82 4.49 4.9.13 9.8 0 14.7.05 6.19.07 11.56 1.88 14.81 7.63a113.79 113.79 0 0 1 9.94 23c1.3 4.32.4 8.41-1.77 12.27a34.26 34.26 0 0 1-6.12 7.3c-3.6 3.58-7.58 6.76-10.82 10.7-6.43 7.84-8.31 16.57-5 26.18a33.78 33.78 0 0 0 8.66 12.83c6.15 6 12.26 12.1 18.25 18.3a41.28 41.28 0 0 0 3.84 3.4c9.47 7.59 20.75 8.61 30.9 2.76 4.61-2.66 8.28-6.44 11.85-10.3 3.17-3.43 6.31-6.89 10.27-9.46 3.26-2.11 6.84-3.17 10.62-2.16a97.54 97.54 0 0 1 25.47 10.87c4 2.43 5.93 6.36 6.38 10.93a53.3 53.3 0 0 1 .37 8.84 88 88 0 0 0 .1 14.15c1 10.2 6.1 17.53 15.4 21.87a19 19 0 0 1 3.62 1.85 4.09 4.09 0 0 0 2.63.81h41.1a4.52 4.52 0 0 0 2.07-.34c2.28-1.11 4.6-2.14 6.88-3.26 7.86-3.83 12.11-10.26 13.35-18.79.76-5.17.31-10.38.35-15.57a53.74 53.74 0 0 1 .66-10 16.54 16.54 0 0 1 8.42-11.85 90.39 90.39 0 0 1 18-7.8 27.87 27.87 0 0 1 11.2-1.3c5.44.6 9.23 3.87 12.6 7.83s6.26 8.18 10.42 11.3c8.44 6.34 17.54 8.53 27.56 4a39 39 0 0 0 11.27-8.17c3.53-3.48 6.87-7.16 10.43-10.6 3.74-3.6 7.64-7 10.93-11.09 6.42-7.9 9-16.61 5.47-26.58a27.78 27.78 0 0 0-6.34-9.72c-3.81-4-8.2-7.48-11.94-11.59-5.16-5.68-7.56-12-4.88-19.67a138.9 138.9 0 0 1 7.53-18.14c3.11-6 7.88-9.71 14.76-10.54 5.39-.65 10.73.15 16.09.22 5.19.06 10.24-.42 14.95-2.87 5-2.57 8.36-6.63 11.23-11.27 1.33-2.15 2.14-4.61 3.81-6.57V330.4c-1.81-2.07-2.66-4.67-3.68-7.18zM350.92 429.16c-41.2.29-76.15-35.47-75.86-77.48.26-37.89 27.79-76 78.93-76.77 40.53-.58 75.21 35.87 75.19 77.88-.18 36.69-28.59 76.02-78.26 76.37zM222.82 98.48a13.35 13.35 0 0 0-6.26-9.07c-2.94-1.83-6.27-2.35-9.62-2.76s-6.73-.29-10-1a5.89 5.89 0 0 1-4.15-2.44A22.58 22.58 0 0 1 189.28 72a2.69 2.69 0 0 1 1.15-2.42 42.64 42.64 0 0 0 5.46-5c7.43-8.12 7.91-17.81 1-25.29C193 35 188.88 30.92 184.63 27c-7.06-6.52-16.75-6.53-23.94-.18-2.34 2.07-4.55 4.29-6.78 6.48a4.17 4.17 0 0 1-3.34 1.29c-4.19-.2-7.69-2-11-4.39a3.58 3.58 0 0 1-1.69-3.2 78.76 78.76 0 0 0-.33-11c-.78-5.78-3.31-10.4-8.77-13.06a16.78 16.78 0 0 1-4.35-2.73h-24.8a18.33 18.33 0 0 1-5.11 3.11 11.67 11.67 0 0 0-4.72 3.91 20.69 20.69 0 0 0-3.65 11.83v7.44a4.45 4.45 0 0 1-1.94 3.92 22.61 22.61 0 0 1-9.5 4.1 5.66 5.66 0 0 1-5.46-1.72 151.63 151.63 0 0 0-5.38-5.38c-7-6.73-16.63-7.12-24.06-.85-4.46 3.77-8.4 8.11-12.46 12.3a17.75 17.75 0 0 0-4.91 9.46c-1 6 .87 11.18 5 15.55 1.91 2 3.9 3.94 5.84 5.92a4.48 4.48 0 0 1 1.22 4.38 42 42 0 0 1-2.32 7.23c-1.42 3.45-3.93 5-7.6 4.88-2.53-.06-5.08-.09-7.61 0-5.7.22-10.27 2.41-13.1 7.62C3 95.57 2 97.19 1 98.75a5 5 0 0 0-.89 3c0 5.2.19 10.4 0 15.59a19.78 19.78 0 0 0 2.81 11.54 17.16 17.16 0 0 0 12 8.5c3.44.7 6.94.38 10.42.35a6.56 6.56 0 0 1 5.99 3.27c5 7.54 4.6 11.15-2.15 17.13-8.71 7.71-9.43 18-1.95 26.79 2.49 2.94 5.64 5.21 8.11 8.16a31.32 31.32 0 0 0 5.44 5 16.73 16.73 0 0 0 20 .62 34.88 34.88 0 0 0 8.61-8.09 3.32 3.32 0 0 1 2.86-1.35 20.24 20.24 0 0 1 9.46 2.59c3.38 1.72 5.38 4.13 4.79 8.14-.14.93-.11 1.89-.16 2.83-.58 11.28 3.37 17.25 14.33 19.72l.52.1a71.63 71.63 0 0 0 20.46.51c9.53-1 14.53-6.19 15.61-15.62.41-3.63.47-7.3.61-11a3.3 3.3 0 0 1 1.36-2.72 22.42 22.42 0 0 1 9-4.35c2.67-.57 5-.15 6.9 2 1.65 1.85 3.45 3.56 5.26 5.26 6.7 6.31 16.11 6.75 23.2.89a144.53 144.53 0 0 0 13.47-13.3 16.83 16.83 0 0 0 4.65-10.85 17.56 17.56 0 0 0-5.52-13.86c-1.71-1.71-3.39-3.46-5.14-5.13a5.63 5.63 0 0 1-1.61-5.64 27.52 27.52 0 0 1 3.14-7.85 6.63 6.63 0 0 1 7-3.72 47 47 0 0 0 8.13 0c6-.53 10.54-3.18 13.36-8.58a21.55 21.55 0 0 0 2.12-6.18 64.94 64.94 0 0 0-.37-24.02zm-111.43 47.67c-18.35 0-33.47-15.67-33.56-34.84-.09-17.93 15.82-33.49 34.24-33.49 18.87 0 34 15.43 34 34.69.05 18.49-15.56 33.61-34.68 33.64z" fill="#a7a7a7"/></svg>