<svg id="Слой_1" data-name="Слой 1" xmlns="http://www.w3.org/2000/svg" viewBox="0 0 566.93 566.93"><defs><style>.cls-1{fill:#a7a7a7}</style></defs><path class="cls-1" d="M0 391.9l1-9.12c1.25-11.4 4.41-22.33 8.12-33.13.42-1.23 1.32-1.37 2.28-1.61l37.48-9.28q34-8.42 68.09-16.8c1.93-.47 2.46-1.29 2.49-3.23a161.49 161.49 0 0 1 14.48-65.39c1-2.09 1-2.06 3.08-1.07 8.77 4.11 17.52 8.24 26.31 12.29 1.3.6 1.62 1.12 1 2.51a128.71 128.71 0 0 0-11.2 42.61c-.3 3.33-.27 3.34 3 2.54L181.2 306c2-.48 2.1-.34 1.85 1.57a99 99 0 0 0 7.6 53.84c10.14 22.93 26.66 39.82 49.11 50.93 1.59.78 3.22 1.48 4.86 2.13 1.29.51 1.75 1 .55 2.18-3.58 3.6-7.09 7.27-10.63 10.91-2.87 3-5.7 6-8.62 8.9-1.09 1.09-.76 1.58.44 2.15a130.16 130.16 0 0 0 44.07 12.46 104.31 104.31 0 0 0 11.31.66c1.3 0 1.76.5 1.76 1.78 0 9.92-.05 19.84 0 29.76 0 1.82-1.05 1.79-2.31 1.76a167 167 0 0 1-32.83-3.81 161.29 161.29 0 0 1-46.08-17.78 1.94 1.94 0 0 0-2.86.39c-6.53 6.83-13.15 13.57-19.74 20.34-1.81 1.86-1.8 1.88.43 3.26a195.07 195.07 0 0 0 120 28.89 185.55 185.55 0 0 0 21.9-3.1c1.42-.29 1.89.23 2.15 1.51q3 14.57 6.08 29.12c.24 1.16 0 1.7-1.21 2a246.17 246.17 0 0 1-26.63 3.75 230.56 230.56 0 0 1-25.48.64 222.31 222.31 0 0 1-44.19-5.56 229.18 229.18 0 0 1-56-20.67 207.33 207.33 0 0 1-20.81-12.46c-1.22-.84-1.92-.76-3 .31-9.79 10.15-19.66 20.23-29.45 30.39a3.81 3.81 0 0 1-4 1.22 156.94 156.94 0 0 1-32.15-9.68A141 141 0 0 1 50.18 510 149.67 149.67 0 0 1 .63 413.45c-.21-2.1 0-4.26-.63-6.31zm479.53-71.29c-.25-37.82-10.31-72.8-30.52-104.82a197.8 197.8 0 0 0-29.1-35.79c-1.68-1.65-3.38-3.3-5.2-4.8-1.08-.89-1-1.49-.13-2.42q7.56-8.43 15.07-16.93c1.53-1.72 3.09-3.41 4.54-5.19.93-1.15 1.57-1.33 2.8-.23a229.94 229.94 0 0 1 74 140.79 238 238 0 0 1 2 32.12c0 4.07-.26 8.14-.59 12.2-.15 1.85.43 2.56 2.23 3 13.59 3.32 27.15 6.78 40.73 10.12a3.6 3.6 0 0 1 2.89 2.61 142.12 142.12 0 0 1 8.62 54.4 145 145 0 0 1-12.43 53 148.66 148.66 0 0 1-34.53 48.84 140.72 140.72 0 0 1-69.46 35.78c-4.27.87-6.83.21-9.85-3-12-12.82-24.29-25.29-36.47-37.9q-14.34-14.83-28.64-29.69-18.81-19.51-37.61-39l-16.13-16.8c-1.33-1.38-1.32-1.5.46-2.24a101.49 101.49 0 0 0 61.88-106.75c-.28-2.14-.25-2.15 1.83-1.64l26.08 6.55c2 .5 2 .49 1.86-1.5a129.5 129.5 0 0 0-28.38-72.22c-.89-1.12-.77-1.69.27-2.55q11.58-9.48 23.08-19.05c1.09-.91 1.61-.57 2.38.39a163.56 163.56 0 0 1 30.81 60.86 153.92 153.92 0 0 1 5.44 40.95 2.16 2.16 0 0 0 2 2.53c9.18 2.22 18.32 4.57 27.48 6.88 2.32.59 2.42.61 2.56-1.78.14-2.23.03-4.48.03-6.72z"/><path class="cls-1" d="M283.48 16.62c24.08.19 46.94 5.44 68.34 16.6A143.63 143.63 0 0 1 393 65.81c2.58 2.9 3 5.24 1.93 8.86-7.87 26.85-15.51 53.77-23.22 80.67q-12.06 42.14-24.13 84.27c-.63 2.2-.65 2.21-2.58.75a98.66 98.66 0 0 0-50.68-20.2c-26.51-2.63-50.55 4-71.93 20-2.15 1.61-2.14 1.62-2.88-1q-3.67-12.76-7.33-25.53c-.55-1.93-.6-2-2.3-.81A124.48 124.48 0 0 0 187.6 232c-1.68 1.87-1.67 1.85-3.5.21-7.17-6.41-14.33-12.84-21.56-19.19-1.24-1.09-1.2-1.74-.1-2.93a164.15 164.15 0 0 1 37.76-30.47c1.44-.85 1.78-1.63 1.3-3.24q-4.11-13.92-8-27.91c-.42-1.51-1-1.54-2.19-.89a194.59 194.59 0 0 0-69.66 62.33A197.94 197.94 0 0 0 97 260.16c-.82 2.51-.81 2.49-3.4 1.69-9.13-2.84-18.25-5.7-27.41-8.47-1.43-.44-1.68-1-1.24-2.38a231.5 231.5 0 0 1 102.41-127.95q7.09-4.2 14.49-7.83c1.4-.68 1.69-1.4 1.26-2.88-3.86-13.32-7.6-26.68-11.53-40a4.45 4.45 0 0 1 1.1-4.83 145.87 145.87 0 0 1 30.87-27.44 144.08 144.08 0 0 1 62.27-22.36 141 141 0 0 1 17.66-1.09z"/><path class="cls-1" d="M283.44 389.12a68.23 68.23 0 1 1 68.36-68 68 68 0 0 1-68.36 68z"/></svg>