<svg id="Слой_1" data-name="Слой 1" xmlns="http://www.w3.org/2000/svg" viewBox="0 0 566.93 566.93"><defs><style>.cls-1{fill:#a7a7a7}</style></defs><path class="cls-1" d="M566.92 103.63a118.57 118.57 0 0 0-.77-13.85c-2.21-18.63-10.06-34.4-23.95-47.07-14.06-12.82-30.93-19-49.63-19.1-75.25-.27-150.5-.12-225.75-.1a173.42 173.42 0 0 0-24.31 1.91 151.74 151.74 0 0 0-55.08 19.1 147.28 147.28 0 0 0-36.11 29.06C140.48 85.65 129.73 97.8 119 109.91q-16.61 18.65-33.19 37.28c-14.81 16.66-29.53 33.38-44.42 50a163.07 163.07 0 0 0-24.17 34.5 149.27 149.27 0 0 0-15.79 52.08c-.82 7.43-2.21 14.9-.88 22.46.67 3.86 1 7.77 1.52 11.66q4.22 32.25 8.41 64.5c3.21 24.69 6.25 49.39 9.66 74.05 3.56 25.71 15.48 46.95 35.36 63.63 18.75 15.73 40.74 23.17 65 23.26 66.16.27 132.31.09 198.47.09h195.27a73.87 73.87 0 0 0 11.51-.76c24.57-3.81 41-23.24 41-47.09q.43-195.95.17-391.94zm-48.41 258.29a11.8 11.8 0 0 1-3.28 13 13 13 0 0 1-8.92 3h-68.47c-6.19 0-10.38-2.92-12.2-8a11.62 11.62 0 0 1 10.72-15.45c11.94-.08 23.89 0 35.83 0h35.48a11.38 11.38 0 0 1 10.84 7.45zM72.73 280c2.46-10.37 7.84-19.21 14.49-27.33 7.49-9.16 15.59-17.78 23.42-26.64q18-20.37 36.09-40.66 14.93-16.78 29.86-33.55c9-10.08 17.89-20.19 26.92-30.21a80.82 80.82 0 0 1 38-23.62 85.47 85.47 0 0 1 24.29-3.26q112.42.08 224.85 0c4.42 0 5.06.63 5.06 5v180.66c0 3 0 3-3 3H75.43c-3.55.04-3.52.05-2.7-3.39zm435.32 168.59H83.63c-6 0-10.52-3.2-12.07-8.43a11.78 11.78 0 0 1 10.85-15.06h424.23c5.84 0 10.2 2.85 12 7.83a11.77 11.77 0 0 1-10.59 15.66z"/><path class="cls-1" d="M296.5 118.3c3.89.2 7.67 2.57 9.58 7.32 1.85 4.58 1.15 9-2.36 12.54-8.35 8.54-16.79 17-25.23 25.44q-22.35 22.4-44.74 44.76c-3.22 3.23-6.93 5-11.55 4.1a11.8 11.8 0 0 1-6.74-19.3 10.54 10.54 0 0 1 .87-.9q35.1-35.12 70.2-70.23c2.47-2.44 5.27-3.79 9.97-3.73zm-73.62 47.14c-3.56-.16-7.24-2.44-9.26-7a11 11 0 0 1 2.19-12.88q11.91-12.29 24.18-24.19a11.81 11.81 0 0 1 16.48 16.9c-7.87 8-15.84 15.91-23.8 23.82-2.29 2.3-5.11 3.41-9.79 3.35z"/></svg>