<svg data-name="Слой 1" xmlns="http://www.w3.org/2000/svg" viewBox="0 0 566.93 566.93"><path d="M566.93 500.05c-.34 2.39-.6 4.8-1 7.18-3.77 21.24-15.11 37.21-33.71 48a64.28 64.28 0 0 1-33.82 8.66 67.4 67.4 0 0 1-66.25-58.56c-2.74-20.82 3.11-39.21 17.24-54.86a63.64 63.64 0 0 1 18.18-14 3.83 3.83 0 0 0 2.46-3.94q-.11-58.59-.05-117.18c0-2.74 0-2.75-2.72-2.75H315.08c-2.72 0-2.72 0-2.72 2.74 0 12.43-.13 24.86.07 37.29.42 26.86.09 53.73.26 80.59a3.61 3.61 0 0 0 2.16 3.6c15.73 8.78 26.56 21.7 32.1 38.85a67.62 67.62 0 0 1-32.66 80.27 64.24 64.24 0 0 1-32.93 7.93c-25.44-1-44.84-12.49-57.83-34.43a61.86 61.86 0 0 1-8.71-34.67c1.17-26.65 13.85-46.28 37.27-59a3.11 3.11 0 0 0 1.95-3.13q-.06-58.77 0-117.54c0-2.45-.06-2.52-2.46-2.52H98.86c-2.43 0-2.44 0-2.44 2.48 0 23.26-.14 46.52.12 69.77.18 16.16.13 32.31.19 48.46a3 3 0 0 0 1.84 3c20.61 11.33 32.8 28.63 35.73 52A67.38 67.38 0 0 1 77 563.13c-21 2.91-39.65-2.76-55.45-17a64.46 64.46 0 0 1-21.1-38.87c-.86-5.55-.09-11.26-.28-16.85a37 37 0 0 1 1.4-11c5.26-19.3 16.77-33.66 34.36-43.14a3.07 3.07 0 0 0 1.94-3.13c-.06-59.12.11-118.25-.15-177.37-.19-40.47-.11-80.95-.17-121.43a4.18 4.18 0 0 0-2.55-4.28C15.88 119.33 4.13 103.21.46 81.52-.48 76 .34 70.3.18 64.68a34.42 34.42 0 0 1 1-9.32q6.95-28.57 32.28-43.5a60.7 60.7 0 0 1 25.41-8.43c19.25-1.78 36.86 2.51 51.79 15.33 17 14.65 25.34 33.41 24 55.78-1.5 24.34-13.52 42.63-34.47 55.06-4.51 2.67-3.74 1.07-3.74 6.3v115.58c0 2.76 0 2.77 2.71 2.77h152.09c2.8 0 2.8 0 2.8-2.89 0-12.43.13-24.86-.07-37.29-.43-26.8-.09-53.61-.29-80.41a3 3 0 0 0-1.68-3.12c-20.71-11.39-33-28.71-35.92-52.24A67.34 67.34 0 0 1 257.5 8a64.08 64.08 0 0 1 23.85-4.79c9.12-.08 17.95.87 26.43 4.3 18.35 7.42 31.64 20.17 38.54 38.71 9.23 24.78 5.05 47.78-11.74 68.35a62.45 62.45 0 0 1-20 15.9 3.49 3.49 0 0 0-2.2 3.56q.08 58.77 0 117.54c0 2.67 0 2.68 2.65 2.68h152.36c2.61 0 2.6 0 2.6-2.66 0-16.63 0-33.26-.07-49.89-.07-22.72-.19-45.44-.24-68.17a3 3 0 0 0-1.82-3c-19.46-10.7-31.46-26.9-35.32-48.83a67.47 67.47 0 0 1 33.46-70 63.54 63.54 0 0 1 25-8.19c29-2.84 53.2 9.8 67.17 33.75a64.73 64.73 0 0 1 8.47 26.69 7 7 0 0 0 .32 1.19v11c-.34 2.33-.33 4.69-.53 7a46.27 46.27 0 0 1-3.87 14 67.5 67.5 0 0 1-15.65 22.81 61.49 61.49 0 0 1-14.23 10.5 5.46 5.46 0 0 0-3.23 5.51q.08 75.34 0 150.69v145.36a4 4 0 0 0 2.37 4 68.91 68.91 0 0 1 17.35 13.39 71.2 71.2 0 0 1 15.43 26.26c1.66 4.93 1.94 10 2.15 15.13 0 .52-.15 1.07.17 1.56z" fill="#a7a7a7"/></svg>