<svg id="Слой_1" data-name="Слой 1" xmlns="http://www.w3.org/2000/svg" viewBox="0 0 566.93 566.93"><defs><style>.cls-1{fill:#a7a7a7}</style></defs><path class="cls-1" d="M238.26 179.13l20.87 22.6-30.86 30.15c-8.14-8.59-17.4-16.91-24.91-26.6a46.48 46.48 0 0 1 62-67.31c19.24 12.24 38 25.26 57.84 38.54 17-17.12 33.92-34.13 50.87-51.07 12.47-12.46 18.1-13.38 36.47-4.7 6.86-7.57 14.68-15.6 21.64-24.31 1.8-2.26 1.82-6.89 1.08-10.07C424.87 50 446.41 13 481.52 4.1 517.93-5.16 555 16 564.4 52.55c6.4 25 .76 47.78-18.24 66-18.57 17.78-41 22.84-65.41 15.61-8.57-2.53-14.49-2.2-20 5.11-3.24 4.28-8.14 7.35-11.17 11.74-1.91 2.77-3.33 7.63-2.2 10.41 4.28 10.48 1.78 18.86-5.76 26.4-13.09 13.07-26.23 26.08-40.36 40.13l53 33.16 3.5-4.48-21.29-23 29-29c8.15 7.68 17.58 14.72 24.68 23.61 14.94 18.73 13.35 44.49-2.45 61.65-15.07 16.36-40.74 19.9-60.44 7.31-37.48-24-74.63-48.45-111.91-72.73q-32.59-21.26-65.16-42.47c-3.08-2-6.32-3.75-9.49-5.62zM523.78 70.18c-.06-13-11.92-24.66-24.65-24.32-11.95.32-22.61 11.27-22.84 23.45-.24 13 11.26 25 23.93 25 12.31-.13 23.61-11.69 23.56-24.13z"/><path class="cls-1" d="M143.94 271.3l22.35 24-30.68 29.36c-11.92-12.74-28-22.79-32.88-42.2s1.61-38.7 17.51-50.31c14.47-10.56 36.35-11.28 52.44-1 19.17 12.28 38 25.12 58.55 38.77l46.52-48.17a38.13 38.13 0 0 1 4 2.21c23.1 17.55 46.17 35.13 70.64 53.76l-43.78 41.91 52.71 33.65 2.68-2.78c-1.93-11.42-14.66-15.24-19.33-24.41l29.8-29.7c12.14 13.95 28.4 25.89 30.81 46.71 2.27 19.64-4.47 36-21.73 46.59-17.45 10.7-35.27 10.06-52.41-1.08q-80.67-52.49-161.21-105.19c-7.7-5-15.47-9.94-23.2-14.9zm45.58 226.51c-15.75 21.26-34.37 6.78-53.51-.21-2.45 23.32-10.74 43-30.5 56.26-14.87 10-31.26 12.54-48.73 10.49C26.25 560.77.88 531.76 0 499.33c-1-37.14 22.79-62.22 68.27-70.87-10.49-18.29-20.06-36.84-1.74-55.68zM68.78 522.34c12.58-.23 24.83-12.24 24.78-24.29-.06-12.64-12-23.63-25.26-23.23-13.7.42-23.66 11-23.34 24.69a23.14 23.14 0 0 0 23.82 22.83z"/><path class="cls-1" d="M218.17 477.31c-43.53-43.5-85-85-126.58-126.48 16.73-18.1 22.53-32.37 55.21 1.6l37.27-38.72 74.54 56-46.41 45.62c7.23 15.26 26.22 20.48 22.32 36.56-2.25 9.32-10.77 17.11-16.35 25.42z"/></svg>