<svg id="Слой_1" data-name="Слой 1" xmlns="http://www.w3.org/2000/svg" viewBox="0 0 566.93 566.93"><defs><style>.cls-1{fill:#a7a7a7}</style></defs><path class="cls-1" d="M100 566.93a11.27 11.27 0 0 0-2-1c-21-6.46-35.28-20.64-45.43-39.52-8.69-16.16-13.43-33.6-15.57-51.7-1.14-9.64-1.39-19.4-1.8-29.11a19.81 19.81 0 0 1 1.29-7.06c3.34-9.6 11.74-14.33 22-12.58a34.85 34.85 0 0 1 16.45 7.36 22.38 22.38 0 0 1 5.39 7.65C84.62 450 89 459 95.41 466.81c8.69 10.54 19.72 17.63 33.24 19.14 8.41.94 17.14-.05 25.63-1 18.26-2.11 35.63-8.16 53.23-13.09 31.49-8.86 63.49-12.64 96.1-10.2 22.21 1.66 43.77 6.61 65.08 12.8 14.61 4.24 29.2 8.68 44.36 10.52 9.45 1.14 19 2.72 28.48.53 16.35-3.78 28.2-13.72 36.5-28.06a98.42 98.42 0 0 0 7.45-14.65c3.77-10.11 11.79-14.44 21.38-16.46 13.94-2.94 24.78 5.28 24.85 19.49.16 29.26-4.38 57.64-19.08 83.54-9.93 17.47-23.88 30.34-43.44 36.44a15.71 15.71 0 0 0-2.25 1.12z"/><path class="cls-1" d="M388.85 391.23c0 14.66.09 29.31-.05 44 0 5.29-2.64 9.8-5.51 14.07-1.91 2.83-4.89 2.78-7.84 2.26-6.45-1.13-12.88-2.41-19.33-3.53a430.5 430.5 0 0 0-98.24-5.73 442.14 442.14 0 0 0-64.72 8.56 33.48 33.48 0 0 1-4.58.55 5.77 5.77 0 0 1-5.76-3.1c-3-5.25-5.24-10.78-5.24-16.92 0-17.17-.3-34.34.27-51.48.61-18.11 1.65-36.23 3.26-54.28 4-45.23 12.72-89.43 30.52-131.47a52.88 52.88 0 0 1 5.23-9.61 14.82 14.82 0 0 1 12-6.49c34.9-1.53 69.8-1.29 104.72-.66 9.29.17 15.74 4.12 19.17 12.24C358 202 363 214.54 367.24 227.31c8.47 25.71 13.12 52.28 16.44 79.1a724.46 724.46 0 0 1 5.17 84.82z"/><path class="cls-1" d="M451.78 262.23a470.74 470.74 0 0 0-19-83.27A426.89 426.89 0 0 0 405 113.62c-7.32-13.84-18.8-22.49-34.53-24.17-10-1.07-20.2-.86-30.31-1.22h-3.27V70.7c7.8-.32 15.4-.56 23-1 8.46-.44 13-5.36 11.69-13.65a213.9 213.9 0 0 0-6.16-27.56c-3.34-11-8.79-21-19.34-27.11A9.6 9.6 0 0 0 341.55 0q-57.87.06-115.74.42c-2.58 0-5.35 1.39-7.66 2.75a26.69 26.69 0 0 0-5.52 5.07c-7.85 8.38-11.42 18.89-14.12 29.68a125.51 125.51 0 0 0-3.37 19.6c-.6 7 2.33 10.48 9.21 11.75a95.56 95.56 0 0 0 13.23 1.06c4.11.17 8.23 0 12.45 0V88.2h-3.27c-8.58.19-17.17.12-25.73.62-18.29 1.07-31.68 9.94-40 26.24a436.31 436.31 0 0 0-34.45 89.31c-8.51 32.84-13.23 66.29-16.24 100a982 982 0 0 0-4 99.41c.06 4.8-.12 9.8 1.1 14.36 6.13 22.89 21.35 36.62 44.14 42.16 5.39 1.31 10.17-.91 15.18-3.51-.91-2.05-1.59-3.73-2.38-5.37a50.62 50.62 0 0 1-4.76-21.26 857.49 857.49 0 0 1 4-109.51c2.57-24.55 6.09-48.95 11.67-73a323.57 323.57 0 0 1 23.35-67.28c5.44-11.31 14.53-18.59 27.42-20.14a109.23 109.23 0 0 1 12.13-.73c22-.15 44-.31 66-.26 11.09 0 22.18.4 33.26.71 13.85.39 23.64 7.34 30.16 19.18 7.38 13.41 12.1 27.9 16.72 42.4C398.49 266.25 404.35 312.35 406 359c.94 26.21.81 52.46 1.09 78.69a14 14 0 0 1-1 5c-1.49 4-3.16 7.86-4.83 11.76-.81 1.89-.34 3.06 1.58 3.86 3.88 1.64 7.85 2.73 12.09 2 22.52-3.83 45.64-26.09 45.74-52.14.21-48.84-2.13-97.52-8.89-145.94zM318.69 88h-70.53V70.52h70.53z"/></svg>