<svg id="Слой_1" data-name="Слой 1" xmlns="http://www.w3.org/2000/svg" viewBox="0 0 566.93 566.93"><defs><style>.cls-1{fill:#a7a7a7}</style></defs><path class="cls-1" d="M.28 273.49c.75-6 1.42-12 2.26-18q10.76-77.1 58-139 53.82-70.05 137-100A297.79 297.79 0 0 1 273.27.27c10.06-.87 11-.13 11.59 9.73.41 6.53.4 13.09.4 19.64q0 49.4-.1 98.78c0 9.82-.57 10.32-10.35 12.08-11.46 2.06-22.9 4.23-33.74 8.66-50.51 20.6-83.23 57.06-97.37 109.86-1.91 7.13-2.91 14.51-4.19 21.8-.46 2.6-1.55 3.63-4.36 3.63q-64.12 0-128.25.15c-2.34 0-4.86.35-6.62-1.86z"/><path class="cls-1" d="M295 161c76-1.49 137.23 63.91 136.82 136.17-.42 72.46-63.22 134.86-136 134.56s-135.32-63-134.89-136.23C161.35 224.3 221.15 161 295 161zm-40.74 135.3c-1.64 22.53 21.62 42.43 42 42.47 22 .05 43.33-21.6 42.42-42.52-1-24-19.19-42.11-44-42.44-19.29-.26-41.89 19.73-40.42 42.49zm41.61 106.88c10.47 0 18.26-7.68 18.23-17.92 0-11.12-9-18.17-18.24-18.35a18.24 18.24 0 0 0-18.36 18.48c.07 10.24 7.91 17.83 18.37 17.79zm.9-213.8c-10.33-.13-17.67 7.05-17.85 17.45a18 18 0 0 0 17.65 18.67c9.69.21 18.55-8.48 18.63-18.27.08-10.4-7.47-17.71-18.43-17.85zm59 64.14c-.14 8.51 8.89 16.92 18.22 17 9.5.05 17.87-8.21 18.05-17.81.18-9.85-8.46-19.17-18.08-18.8-8.72.31-18.17 5.35-18.22 19.61zM236.86 340c1.58-7.45-8-17.68-17.48-17.76s-18 7-18.56 16.38c-.56 10.24 7 19.38 16.39 19.88 11.43.6 19.03-6.56 19.65-18.5zm136.43-16.47c-10.39-.16-18 7-18.21 17.12s8.1 18.83 17.88 19c10.09.14 17.81-7.23 18-17.15.16-11.89-6.26-18.79-17.67-18.97zM219.9 269a17.3 17.3 0 0 0 17.86-17.51c.07-9.7-8.68-18.59-18.4-18.67-9.19-.08-17.58 8.32-17.76 17.79-.22 11.29 6.67 18.22 18.3 18.39z"/><path class="cls-1" d="M308.14 25.77C453.52 32 568.66 154.4 566.6 296.31c2.73 145.49-123.19 278.4-284.5 270.26C145.81 559.7 31 447.59 25.87 308.2c8.81 0 17.62-.07 26.42.12.82 0 2.17 1.63 2.31 2.63.88 6.38 1.32 12.83 2.22 19.21a237.27 237.27 0 0 0 29.61 85.93q37.11 64.31 103.65 97.43a229.91 229.91 0 0 0 78.78 23c64.48 6.79 123.09-9.06 174.38-48.48 48.6-37.36 79.23-86.73 90.84-147.26 16-83.35-14.2-170-78.28-226-34.7-30.35-74.8-49.24-120.12-57.2-7.28-1.27-14.72-1.65-22.08-2.45-4.18-.46-5.38-1.43-5.49-5.54-.2-7.31-.11-14.63-.13-22 .02-.51.1-1.08.16-1.82z"/></svg>