<svg id="Слой_1" data-name="Слой 1" xmlns="http://www.w3.org/2000/svg" viewBox="0 0 566.93 566.93"><defs><style>.cls-1{fill:#a7a7a7}</style></defs><path class="cls-1" d="M566.93 268.44v24.88a29.78 29.78 0 0 0-.47 3.08 263.93 263.93 0 0 1-5.93 44.36c-13.84 62.4-45 114.6-93.6 156-47.66 40.57-103 62.77-165.55 66.9a277.39 277.39 0 0 1-111.2-15.19c-54.13-19-98.84-51.34-133.15-97.29C9.82 388-7.75 316.78 3.09 238.75c5.49-39.45 19.39-76 40.8-109.62 20.35-31.94 45.64-59.16 77.47-80C159.83 24 202.25 9.92 247.72 4.73A311.12 311.12 0 0 1 350.63 9.9c72.64 16 130.24 54.1 170.87 116.91a278.92 278.92 0 0 1 43.75 123.55c.65 6.02 1.12 12.06 1.68 18.08zm-214.67-45.81h3.29l28.62.69 89.35 2.16c5.68.13 11.38.41 17.05.13 5.88-.3 8.9-3.85 8.63-9.74a28.81 28.81 0 0 0-1.47-7.61A211.89 211.89 0 0 0 480 168.84c-27.78-48-67.69-81.11-120.74-97.93a247.49 247.49 0 0 0-122.5-7.27c-49.78 9.42-92.39 31.79-125.57 70.78a224.15 224.15 0 0 0-42.33 74.7c-3.84 11.52.4 17 12.46 16.7q65.49-1.65 131-3.22a22 22 0 0 1 2.25.23c-33.13 39-27.92 94.58 7 126.66s86.93 32.62 122.48 1.33c35.75-31.56 42.17-88.32 8.21-128.19zm-21.8 280.2c3.6-.86 6.87-1.58 10.1-2.42A226.69 226.69 0 0 0 503 336.48a154.59 154.59 0 0 0 3.77-19.24c.79-6.82-2.6-10.27-9.42-10.71-2.21-.14-4.43-.15-6.65-.21-25-.65-49.63 1-73.77 8.3-31.88 9.62-53.93 29.38-65.47 60.88-7.08 19.3-11 39.29-13.6 59.57-2.12 16.33-3.82 32.72-5.64 49.1-.68 6.09-1.16 12.21-1.76 18.66zm-94.35.24a8.18 8.18 0 0 0 .23-1.44c-2.83-25.08-5.36-50.19-8.63-75.21a227.77 227.77 0 0 0-13-52.59c-10.59-27.5-29.38-46.57-57.24-56.55a179.11 179.11 0 0 0-53.65-10.52c-11.36-.44-22.75-.31-34.11-.15-7 .1-10.14 3.81-9.68 10.78a61.42 61.42 0 0 0 1.25 7.68 226.62 226.62 0 0 0 149.61 170.67c8.23 2.81 16.72 4.88 25.22 7.33z"/><path class="cls-1" d="M211.09 282.71c0-40.29 31.24-70.88 72.31-70.89s72.45 30.72 72.35 71.15a72.33 72.33 0 0 1-144.66-.26z"/></svg>