<svg xmlns="http://www.w3.org/2000/svg" width="512" height="512"><path d="M93.459 105.444l76.858 11.215 25.561 90.071-90.643-2.172-30.312-74.62L55.675 116c-7.43 3.98-16.215 5.526-25.094 3.781C10.133 115.761-3.31 95.797.711 75.342c4.02-20.448 23.985-33.892 44.439-29.87 20.448 4.021 33.892 23.985 29.869 44.439a37.024 37.024 0 0 1-.419 1.877l18.859 13.656zm297.655 306.227c19.533 0 35.368 15.835 35.368 35.368s-15.835 35.368-35.368 35.368-35.368-15.835-35.368-35.368 15.835-35.368 35.368-35.368zm-182.421 0c19.533 0 35.368 15.835 35.368 35.368s-15.835 35.368-35.368 35.368-35.368-15.835-35.368-35.368c.001-19.533 15.835-35.368 35.368-35.368zM403.65 246.252c-59.825 0-108.329-48.504-108.329-108.329 0-59.825 48.504-108.329 108.329-108.329 29.725 0 57.255 12.171 76.625 31.757l-80.225 80.225-19.882-19.882c-6.005-6.005-15.74-6.005-21.745 0-6.005 6.005-6.005 15.74 0 21.745l30.754 30.754c6.005 6.005 15.74 6.005 21.745 0l87.954-87.954c22.976 42.24 15.174 94.483-18.627 128.284-19.604 19.603-46.686 31.729-76.599 31.729zm-219.897 95.519l48.643-6.364-27.759-97.815-86.828-2.081 36.474 89.787c-2.652 3.034-4.91 6.487-6.719 10.316-13.776 29.163 7.834 62.247 39.894 62.247h240.971c8.493 0 15.377-6.885 15.377-15.377 0-8.493-6.885-15.377-15.377-15.377H187.457c-4.916 0-8.852-2.102-11.439-6.224-4.811-7.665-.322-17.229 7.735-19.112zM203.6 121.516l61.17 8.926c-1.506 27.761 5.447 54.937 19.309 78.401l-56.077-1.344-24.402-85.983zm228.162 152.592c-17.876 21.357-42.5 37.072-71.16 43.823l-8.392-50.865c25.189 10.067 52.73 12.631 79.552 7.042zm-101.477 48.49l-12.41-75.223a137.442 137.442 0 0 1-8.575-7.276l-72.54-1.738 26.399 93.02 67.126-8.783z" fill-rule="evenodd" clip-rule="evenodd" fill="#a7a7a7"/></svg>