<svg xmlns="http://www.w3.org/2000/svg" width="221.374" height="240.822"><path d="M129.076 129.006L20.779 237.267c-4.752 4.74-12.451 4.74-17.215 0-4.752-4.74-4.752-12.439 0-17.179l99.707-99.671L3.576 20.746c-4.752-4.74-4.752-12.439 0-17.191 4.752-4.74 12.463-4.74 17.215 0l108.297 108.26c4.679 4.691 4.679 12.511-.012 17.191zm88.778 0L109.557 237.267c-4.752 4.74-12.451 4.74-17.215 0-4.752-4.74-4.752-12.439 0-17.179l99.707-99.671-99.695-99.671c-4.752-4.74-4.752-12.439 0-17.191 4.752-4.74 12.463-4.74 17.215 0l108.297 108.26c4.679 4.691 4.679 12.511-.012 17.191z" fill="#fff"/></svg>