<svg xmlns="http://www.w3.org/2000/svg" width="268.832" height="374.162"><path d="M265.171 83.66l-80-80c-4.881-4.88-12.797-4.88-17.678 0-4.882 4.883-4.882 12.797 0 17.679l58.661 58.66H12.5C5.597 80 0 85.598 0 92.5 0 99.403 5.597 105 12.5 105h213.654l-58.659 58.662c-4.882 4.882-4.882 12.796 0 17.678a12.467 12.467 0 0 0 8.839 3.66c3.199 0 6.398-1.221 8.839-3.66l79.998-80c4.882-4.882 4.882-12.796 0-17.678z" fill="#a7a7a7"/><path d="M265.171 272.823l-80-80c-4.881-4.88-12.797-4.88-17.678 0-4.882 4.882-4.882 12.796 0 17.678l58.661 58.661H12.5c-6.903 0-12.5 5.597-12.5 12.5 0 6.902 5.597 12.5 12.5 12.5h213.654l-58.659 58.661c-4.882 4.882-4.882 12.796 0 17.678a12.467 12.467 0 0 0 8.839 3.661c3.199 0 6.398-1.222 8.839-3.66l79.998-80c4.882-4.883 4.882-12.797 0-17.679z" fill="#4185ee"/></svg>