<svg xmlns="http://www.w3.org/2000/svg" width="268.832" height="374.162"><path d="M3.661 83.66l80-80c4.881-4.88 12.797-4.88 17.678 0 4.882 4.883 4.882 12.797 0 17.679l-58.66 58.66h213.653c6.903 0 12.5 5.598 12.5 12.5 0 6.903-5.597 12.5-12.5 12.5H42.678l58.66 58.662c4.881 4.882 4.881 12.796 0 17.678a12.467 12.467 0 0 1-8.84 3.66 12.469 12.469 0 0 1-8.839-3.66l-79.998-80c-4.882-4.882-4.882-12.796 0-17.678z" fill="#a7a7a7"/><path d="M3.661 272.823l80-80c4.881-4.88 12.797-4.88 17.678 0 4.882 4.882 4.882 12.796 0 17.678l-58.66 58.661h213.653c6.903 0 12.5 5.597 12.5 12.5 0 6.902-5.597 12.5-12.5 12.5H42.678l58.66 58.661c4.881 4.882 4.881 12.796 0 17.678a12.467 12.467 0 0 1-8.84 3.661 12.469 12.469 0 0 1-8.839-3.66l-79.998-80c-4.882-4.883-4.882-12.797 0-17.679z" fill="#4185ee"/></svg>