<svg xmlns="http://www.w3.org/2000/svg" width="19.481" height="39.544"><path d="M10.201.306l2.478 5.865 6.344.545a.5.5 0 0 1 .285.876l-4.812 4.169 1.442 6.202a.5.5 0 0 1-.745.541l-5.452-3.288-5.452 3.288a.5.5 0 0 1-.745-.541l1.442-6.202-4.813-4.17a.5.5 0 0 1 .285-.876l6.344-.545L9.28.306a.5.5 0 0 1 .921 0z" fill="#d8d8d8"/><path d="M10.201 21.272l2.478 5.865 6.344.545a.5.5 0 0 1 .285.876l-4.812 4.17 1.442 6.201a.5.5 0 0 1-.745.541l-5.452-3.288L4.29 39.47a.5.5 0 0 1-.745-.54l1.442-6.203-4.813-4.17a.5.5 0 0 1 .285-.876l6.344-.545 2.478-5.864a.5.5 0 0 1 .921 0z" fill="#81bef1"/></svg>