<svg version="1.0" xmlns="http://www.w3.org/2000/svg" viewBox="0 0 1719.549 380.582"><path fill-rule="evenodd" clip-rule="evenodd" fill="#006394" d="M451.441 296.205h20.895v-8.101h-20.895v-9.772H475.1v-8.358h-34.01v45.004h34.846v-8.358h-24.495v-10.415zm79.528-4.693c2.014-.985 3.578-2.325 4.693-4.018 1.114-1.693 1.672-3.654 1.672-5.883 0-3.729-1.458-6.6-4.372-8.615-2.915-2.014-6.987-3.022-12.215-3.022h-20.959v45.004h22.18c5.614 0 9.933-1.114 12.955-3.343 3.022-2.228 4.533-5.336 4.533-9.322 0-2.7-.729-4.972-2.186-6.815-1.458-1.843-3.559-3.172-6.301-3.986zm-20.83-13.823h9.708c2.228 0 3.932.472 5.111 1.414 1.178.943 1.768 2.293 1.768 4.05 0 1.8-.579 3.161-1.736 4.082-1.157.922-2.872 1.382-5.143 1.382h-9.708v-10.928zm11.443 29.574h-11.444v-11.38h11.444c4.886 0 7.329 1.864 7.329 5.593.001 3.858-2.442 5.787-7.329 5.787zm71.395-35.296c-2.936-1.328-6.397-1.993-10.383-1.993h-19.48v45.004h10.415V302.57h9.065c3.986 0 7.447-.653 10.383-1.961 2.935-1.307 5.197-3.192 6.783-5.658 1.585-2.464 2.379-5.346 2.379-8.647 0-3.343-.793-6.236-2.379-8.679-1.586-2.443-3.847-4.329-6.783-5.658zm-3.825 20.091c-1.629 1.35-4.008 2.025-7.136 2.025h-8.486V278.46h8.486c3.128 0 5.507.675 7.136 2.025 1.628 1.35 2.443 3.29 2.443 5.818 0 2.487-.815 4.405-2.443 5.755zm70.013-19.834c-3.729-2.014-7.93-3.022-12.601-3.022-4.672 0-8.883 1.008-12.633 3.022-3.751 2.015-6.686 4.79-8.808 8.326-2.122 3.536-3.182 7.512-3.182 11.926 0 4.415 1.061 8.39 3.182 11.926 2.122 3.536 5.057 6.312 8.808 8.326 3.75 2.015 7.961 3.022 12.633 3.022 4.671 0 8.872-1.007 12.601-3.022 3.729-2.014 6.664-4.79 8.808-8.326 2.143-3.536 3.215-7.511 3.215-11.926 0-4.414-1.072-8.39-3.215-11.926-2.144-3.536-5.079-6.311-8.808-8.326zm-.354 27.71c-1.221 2.186-2.904 3.89-5.047 5.111-2.144 1.221-4.544 1.832-7.201 1.832-2.658 0-5.058-.611-7.201-1.832-2.144-1.222-3.825-2.925-5.047-5.111-1.222-2.186-1.832-4.671-1.832-7.458 0-2.786.611-5.272 1.832-7.458s2.903-3.89 5.047-5.111c2.143-1.222 4.543-1.832 7.201-1.832 2.657 0 5.057.611 7.201 1.832 2.143 1.221 3.825 2.925 5.047 5.111 1.221 2.186 1.832 4.672 1.832 7.458.001 2.787-.61 5.272-1.832 7.458zm35.842 15.044h10.351v-36.517h20.316v36.517h10.351v-45.004h-41.018v45.004zm77.985-18.773h20.895v-8.101h-20.895v-9.772h23.659v-8.358h-34.01v45.004h34.846v-8.358h-24.495v-10.415zm58.697 3.086v-29.317h-10.351v45.004h9.837l21.473-29.253v29.253h10.287v-45.004h-9.772l-21.474 29.317zm10.415-32.21c4.157 0 7.265-.836 9.322-2.507 2.057-1.672 3.107-4.115 3.15-7.329h-7.136c-.043 1.543-.514 2.711-1.414 3.504-.9.794-2.208 1.189-3.922 1.189-3.472 0-5.251-1.564-5.336-4.693h-7.136c.085 6.557 4.243 9.836 12.472 9.836zm61.848 12.826c2.186-1.222 4.671-1.832 7.458-1.832 4.5 0 8.271 1.758 11.315 5.272l6.686-6.172c-2.144-2.572-4.79-4.543-7.94-5.915-3.15-1.371-6.676-2.057-10.576-2.057-4.629 0-8.798.996-12.505 2.99-3.708 1.993-6.622 4.758-8.744 8.294s-3.182 7.533-3.182 11.99c0 4.458 1.061 8.454 3.182 11.99 2.122 3.536 5.036 6.3 8.744 8.294 3.707 1.993 7.854 2.99 12.44 2.99 3.9 0 7.436-.686 10.608-2.057 3.171-1.371 5.828-3.364 7.972-5.979l-6.686-6.172c-3.044 3.558-6.815 5.336-11.315 5.336-2.787 0-5.272-.611-7.458-1.832a13.023 13.023 0 0 1-5.111-5.111c-1.222-2.186-1.832-4.671-1.832-7.458 0-2.786.611-5.272 1.832-7.458a13.03 13.03 0 0 1 5.112-5.113zm88.207-9.933h-10.994l-11.83 18.194h-7.458v-18.194h-10.351v45.004h10.351v-18.13h7.201l11.701 18.13h11.83l-15.173-23.273 14.723-21.731zm54.647 2.25c-3.729-2.014-7.93-3.022-12.601-3.022-4.672 0-8.883 1.008-12.633 3.022-3.751 2.015-6.686 4.79-8.808 8.326-2.122 3.536-3.182 7.512-3.182 11.926 0 4.415 1.061 8.39 3.182 11.926 2.122 3.536 5.057 6.312 8.808 8.326 3.75 2.015 7.961 3.022 12.633 3.022 4.671 0 8.872-1.007 12.601-3.022 3.729-2.014 6.664-4.79 8.808-8.326 2.143-3.536 3.215-7.511 3.215-11.926 0-4.414-1.072-8.39-3.215-11.926-2.143-3.536-5.079-6.311-8.808-8.326zm-.353 27.71c-1.222 2.186-2.904 3.89-5.047 5.111-2.144 1.221-4.543 1.832-7.201 1.832-2.658 0-5.058-.611-7.201-1.832-2.144-1.222-3.825-2.925-5.047-5.111-1.222-2.186-1.832-4.671-1.832-7.458 0-2.786.611-5.272 1.832-7.458 1.222-2.186 2.903-3.89 5.047-5.111 2.143-1.222 4.542-1.832 7.201-1.832 2.657 0 5.057.611 7.201 1.832 2.143 1.221 3.825 2.925 5.047 5.111 1.222 2.186 1.832 4.672 1.832 7.458 0 2.787-.611 5.272-1.832 7.458zm46.193-3.729h20.895v-8.101h-20.895v-9.772h23.659v-8.358h-34.01v45.004h34.846v-8.358h-24.495v-10.415zm156.096-26.231h-10.994l-11.83 18.194h-7.458v-18.194h-10.351v45.004h10.351v-18.13h7.201l11.701 18.13h11.83l-15.173-23.273 14.723-21.731zm34.846 0l-20.059 45.004h10.672l3.986-9.644h20.895l3.986 9.644h10.93l-20.123-45.004h-10.287zm-2.058 27.452l7.136-17.23 7.136 17.23h-14.272zm77.15-7.2c-3 1.329-6.215 1.993-9.644 1.993-3.129 0-5.519-.781-7.169-2.347-1.651-1.564-2.475-3.89-2.475-6.976v-12.922h-10.287v14.08c0 5.444 1.607 9.612 4.822 12.505 3.214 2.893 7.843 4.34 13.887 4.34 3.343 0 6.965-.707 10.865-2.122v16.201h10.287v-45.004h-10.287v20.252zm47.253 5.979h20.895v-8.101h-20.895v-9.772h23.659v-8.358h-34.01v45.004h34.846v-8.358h-24.495v-10.415zm62.619-16.298c2.186-1.222 4.671-1.832 7.458-1.832 4.5 0 8.271 1.758 11.315 5.272l6.686-6.172c-2.144-2.572-4.79-4.543-7.94-5.915-3.15-1.371-6.676-2.057-10.576-2.057-4.629 0-8.798.996-12.505 2.99-3.708 1.993-6.622 4.758-8.744 8.294s-3.182 7.533-3.182 11.99c0 4.458 1.061 8.454 3.182 11.99 2.122 3.536 5.036 6.3 8.744 8.294 3.707 1.993 7.854 2.99 12.44 2.99 3.9 0 7.436-.686 10.608-2.057 3.171-1.371 5.828-3.364 7.972-5.979l-6.686-6.172c-3.044 3.558-6.815 5.336-11.315 5.336-2.787 0-5.272-.611-7.458-1.832a13.023 13.023 0 0 1-5.111-5.111c-1.222-2.186-1.832-4.671-1.832-7.458 0-2.786.611-5.272 1.832-7.458a13.03 13.03 0 0 1 5.112-5.113zm42.626-1.446h14.337v36.517h10.286v-36.517h14.401v-8.486h-39.025v8.486zm92.193 13.051c2.014-.985 3.578-2.325 4.693-4.018 1.114-1.693 1.672-3.654 1.672-5.883 0-3.729-1.458-6.6-4.372-8.615-2.915-2.014-6.987-3.022-12.215-3.022h-20.959v45.004h22.18c5.615 0 9.933-1.114 12.955-3.343 3.022-2.228 4.532-5.336 4.532-9.322 0-2.7-.729-4.972-2.186-6.815-1.457-1.843-3.558-3.172-6.3-3.986zm-20.83-13.823h9.708c2.228 0 3.932.472 5.111 1.414 1.178.943 1.768 2.293 1.768 4.05 0 1.8-.579 3.161-1.736 4.082-1.157.922-2.872 1.382-5.143 1.382h-9.708v-10.928zm11.443 29.574h-11.444v-11.38h11.444c4.886 0 7.329 1.864 7.329 5.593 0 3.858-2.443 5.787-7.329 5.787zm84.414-26.713c-2.144-3.536-5.079-6.311-8.808-8.326-3.729-2.014-7.93-3.022-12.601-3.022-4.672 0-8.883 1.008-12.633 3.022-3.751 2.015-6.686 4.79-8.808 8.326-2.122 3.536-3.182 7.512-3.182 11.926 0 4.415 1.061 8.39 3.182 11.926 2.122 3.536 5.057 6.312 8.808 8.326 3.75 2.015 7.961 3.022 12.633 3.022 4.671 0 8.872-1.007 12.601-3.022 3.729-2.014 6.664-4.79 8.808-8.326 2.143-3.536 3.215-7.511 3.215-11.926 0-4.414-1.072-8.39-3.215-11.926zm-9.161 19.384c-1.221 2.186-2.904 3.89-5.047 5.111-2.144 1.221-4.544 1.832-7.201 1.832-2.658 0-5.058-.611-7.2-1.832-2.144-1.222-3.825-2.925-5.047-5.111-1.221-2.186-1.832-4.671-1.832-7.458 0-2.786.611-5.272 1.832-7.458 1.222-2.186 2.903-3.89 5.047-5.111 2.143-1.222 4.542-1.832 7.2-1.832 2.657 0 5.057.611 7.201 1.832 2.143 1.221 3.825 2.925 5.047 5.111 1.222 2.186 1.832 4.672 1.832 7.458 0 2.787-.611 5.272-1.832 7.458z"/><path fill-rule="evenodd" clip-rule="evenodd" fill="#3478DA" d="M504.429 185.168c-7.834 0-14.128-2.259-18.887-6.778-4.761-4.518-7.139-10.511-7.139-17.983 0-7.469 1.446-14.126 4.338-19.971 2.892-5.843 6.927-10.392 12.109-13.646 5.179-3.253 11.084-4.88 17.712-4.88 11.206 0 19.638 4.942 25.303 14.82l30.725-24.038c-4.58-8.071-11.567-14.306-20.965-18.706-9.398-4.397-20.183-6.597-32.352-6.597-15.425 0-29.189 3.225-41.298 9.669-12.109 6.447-21.57 15.394-28.376 26.839-6.809 11.448-10.212 24.521-10.212 39.22 0 11.087 2.68 20.906 8.043 29.46 5.36 8.557 12.951 15.213 22.773 19.971 9.819 4.758 21.174 7.139 34.069 7.139 12.29 0 23.103-1.929 32.442-5.784 9.336-3.855 17.681-10.302 25.032-19.339l-25.122-24.038c-8.074 9.762-17.473 14.642-28.195 14.642zm84.582-94.886l-25.303 126.515h41.931l18.254-93.441h38.497l-18.254 93.441h41.931L711.37 90.282H589.011zm237.938 55.847c-7.17-6.024-17.322-9.037-30.454-9.037h-30.183l2.892-14.64h67.776l6.506-32.171H733.78l-25.303 126.515h66.692c12.77 0 23.857-1.836 33.255-5.512 9.398-3.674 16.628-8.915 21.688-15.724 5.061-6.806 7.591-14.789 7.591-23.948 0-10.962-3.587-19.456-10.754-25.483zm-37.232 37.593c-2.832 2.169-6.659 3.253-11.477 3.253h-21.869l3.976-20.242h21.869c7.831 0 11.748 2.773 11.748 8.314.001 3.615-1.417 6.507-4.247 8.675z"/><path fill-rule="evenodd" clip-rule="evenodd" fill="#050B0C" d="M988.806 175.941c3.786-5.829 5.678-12.574 5.678-20.232 0-9.572-3.351-17.012-10.051-22.321-6.702-5.307-16.143-7.962-28.325-7.962h-40.595l-18.274 91.372h30.805l4.438-22.451h15.794c9.223 0 17.338-1.609 24.344-4.83 7.004-3.22 12.401-7.745 16.186-13.576zm-29.043-8.55c-2.35 2.133-5.658 3.198-9.92 3.198h-12.662l4.308-21.407h10.312c7.657 0 11.487 3.09 11.487 9.268-.001 3.83-1.175 6.81-3.525 8.941zm79.755-41.966L981.3 216.797h32.502l9.137-15.925h34.852l3.002 15.925h30.675l-21.668-91.372h-30.282zm-3.916 53.257l13.445-23.365 4.438 23.365h-17.883zm146.455-18.405c3.045-4.002 4.569-8.309 4.569-12.923 0-4.96-1.742-9.268-5.221-12.923-3.482-3.655-8.246-6.482-14.293-8.485-6.049-2.001-12.771-3.002-20.167-3.002-11.401 0-22.67 2.307-33.808 6.918l4.438 22.843c4.177-1.913 8.419-3.371 12.727-4.373 4.307-.999 8.289-1.501 11.944-1.501 3.741 0 6.743.545 9.007 1.632 2.262 1.089 3.394 2.633 3.394 4.634 0 1.827-.848 3.308-2.545 4.438-1.697 1.132-3.938 1.697-6.722 1.697h-22.06l-4.438 22.19h24.671c5.395 0 8.093 1.611 8.093 4.83 0 2.872-1.762 5.091-5.286 6.657-3.524 1.566-7.985 2.35-13.379 2.35-4.092 0-8.311-.457-12.662-1.371a56.813 56.813 0 0 1-12.401-4.112l-13.314 21.277c11.66 5.658 24.322 8.485 37.985 8.485 8.962 0 17.23-1.263 24.801-3.785 7.571-2.523 13.596-6.135 18.079-10.834 4.481-4.699 6.722-10.137 6.722-16.316 0-4.177-1.067-7.918-3.198-11.226-2.133-3.306-5.113-5.917-8.941-7.832 4.956-2.175 8.958-5.264 12.005-9.268zm98.55-11.617l4.699-23.235h-79.233l-18.274 91.372h48.166c9.223 0 17.23-1.326 24.018-3.981 6.788-2.653 12.009-6.439 15.664-11.356 3.655-4.915 5.482-10.681 5.482-17.295 0-7.918-2.59-14.052-7.767-18.405-5.178-4.35-12.511-6.527-21.995-6.527h-21.799l2.089-10.573h48.95zm-39.551 31.98c5.656 0 8.485 2.003 8.485 6.004 0 2.611-1.024 4.699-3.068 6.266-2.046 1.566-4.809 2.35-8.289 2.35h-15.794l2.872-14.62h15.794zm130.596-52.148c-7.006-3.437-15.164-5.156-24.475-5.156-11.052 0-20.95 2.307-29.696 6.918-8.746 4.614-15.578 11.075-20.493 19.384-4.917 8.311-7.375 17.775-7.375 28.391 0 8.007 1.893 15.099 5.678 21.277 3.785 6.18 9.18 10.987 16.186 14.424 7.004 3.437 15.162 5.156 24.475 5.156 11.05 0 20.95-2.305 29.696-6.918 8.746-4.611 15.576-11.073 20.494-19.384 4.915-8.309 7.375-17.773 7.375-28.391 0-8.005-1.893-15.097-5.678-21.277-3.787-6.178-9.184-10.985-16.187-14.424zm-12.075 51.495c-1.915 4.265-4.679 7.659-8.289 10.181-3.612 2.525-7.854 3.785-12.727 3.785-5.57 0-9.943-1.609-13.118-4.83-3.178-3.218-4.764-7.526-4.764-12.923 0-5.046.957-9.702 2.872-13.967 1.913-4.263 4.677-7.656 8.289-10.182 3.61-2.523 7.852-3.785 12.727-3.785 5.568 0 9.941 1.611 13.118 4.83 3.176 3.22 4.765 7.528 4.765 12.923-.001 5.049-.96 9.705-2.873 13.968zm122.307-46.6c-6.702-5.307-16.143-7.962-28.325-7.962h-40.595l-18.274 91.372h30.806l4.438-22.451h15.794c9.223 0 17.338-1.609 24.344-4.83 7.004-3.218 12.401-7.744 16.186-13.575 3.785-5.829 5.678-12.574 5.678-20.232-.001-9.572-3.352-17.013-10.052-22.322zm-24.67 34.004c-2.35 2.133-5.658 3.198-9.921 3.198h-12.661l4.307-21.407h10.312c7.656 0 11.487 3.09 11.487 9.268 0 3.83-1.175 6.81-3.524 8.941zm210.286-41.966h-30.283l-56.17 88.159-16.275-42.995 36.679-45.164h-34.199l-26.106 34.069h-7.832l6.788-34.069h-30.806l-18.275 91.372h30.806l6.657-33.025h10.051l11.095 33.025h61.872l9.137-15.925h34.852l3.002 15.925h30.675l-21.668-91.372zm-34.199 53.257l13.445-23.365 4.438 23.365h-17.883z"/><path fill-rule="evenodd" clip-rule="evenodd" fill="#4888C9" d="M207.329 326.572l152.157 24.257-25.995-149.689h-54.728c-3.675 38.023-33.613 68.429-71.435 72.906v52.526z"/><path fill-rule="evenodd" clip-rule="evenodd" fill="#0B1212" d="M334.694 178.821c9.689-9.289 32.275-31.275 31.541-33.146l-14.969-34.949c-1.069-2.407-51.988-.803-51.988-.803L282.84 93.752s.601-50.651-1.805-51.655L245.552 27.33c-2.406-1.069-36.753 35.683-36.753 35.683l-23.053-.133s-35.95-36.888-38.29-35.884l-35.349 14.166c-2.472.87.067 51.187.067 51.187L95.935 108.32s-51.454-1.336-52.389.937l-14.501 34.748c-1.002 2.406 36.819 36.822 36.819 36.822l.134 22.652s-36.819 34.95-35.817 37.29l14.835 35.016c1.068 2.338 52.055.667 52.055.667l16.504 16.239s-.734 50.653 1.672 51.723l35.549 14.768c2.005.869 26.395-24.859 34.281-33.212v-52.325c-39.092-6.014-68.961-39.828-68.961-80.523 0-45.04 36.485-81.594 81.524-81.594 40.161 0 73.572 29.069 80.322 67.294h56.732z"/><linearGradient id="a" gradientUnits="userSpaceOnUse" x1="207.329" y1="300.518" x2="359.486" y2="300.518"><stop offset=".42" stop-color="#4888c9"/><stop offset="1" stop-color="#292929"/></linearGradient><path fill-rule="evenodd" clip-rule="evenodd" fill="url(#a)" d="M207.329 274.046v52.525l152.157 24.257-103.668-100.621c-12.667 12.895-29.594 21.603-48.489 23.839z"/></svg>